<svg width="63" height="62" viewBox="0 0 63 62" fill="none" xmlns="http://www.w3.org/2000/svg">
<path fill-rule="evenodd" clip-rule="evenodd" d="M9.375 0C10.4796 0 11.375 0.89543 11.375 2V36.4629C13.1069 36.8361 14.7131 37.69 15.992 38.9472C17.7538 40.6792 18.75 43.0356 18.75 45.5C18.75 47.9644 17.7538 50.3208 15.992 52.0528C14.7131 53.31 13.1069 54.1639 11.375 54.5371V60C11.375 61.1046 10.4796 62 9.375 62C8.27043 62 7.375 61.1046 7.375 60V54.5371C5.64306 54.1639 4.03693 53.31 2.75801 52.0528C0.996175 50.3208 0 47.9644 0 45.5C0 43.0356 0.996175 40.6792 2.75801 38.9472C4.03693 37.69 5.64306 36.8361 7.375 36.4629V2C7.375 0.89543 8.27043 0 9.375 0ZM7.375 40.627C6.70058 40.8912 6.08245 41.2883 5.56216 41.7997C4.55784 42.787 4 44.1188 4 45.5C4 46.8812 4.55784 48.213 5.56216 49.2003C6.08245 49.7117 6.70058 50.1088 7.375 50.373V40.627ZM11.375 50.373C12.0494 50.1088 12.6676 49.7117 13.1878 49.2003C14.1922 48.213 14.75 46.8812 14.75 45.5C14.75 44.1188 14.1922 42.787 13.1878 41.7997C12.6676 41.2883 12.0494 40.8912 11.375 40.627V50.373ZM31.5 0C32.6046 0 33.5 0.89543 33.5 2V7.46292C35.2319 7.83608 36.8381 8.68998 38.117 9.94723C39.8788 11.6792 40.875 14.0356 40.875 16.5C40.875 18.9644 39.8788 21.3208 38.117 23.0528C36.8381 24.31 35.2319 25.1639 33.5 25.5371V60C33.5 61.1046 32.6046 62 31.5 62C30.3954 62 29.5 61.1046 29.5 60V25.5371C27.7681 25.1639 26.1619 24.31 24.883 23.0528C23.1212 21.3208 22.125 18.9644 22.125 16.5C22.125 14.0356 23.1212 11.6792 24.883 9.94723C26.1619 8.68998 27.7681 7.83608 29.5 7.46292V2C29.5 0.89543 30.3954 0 31.5 0ZM29.5 11.627C28.8256 11.8912 28.2075 12.2883 27.6872 12.7997C26.6828 13.787 26.125 15.1188 26.125 16.5C26.125 17.8812 26.6828 19.213 27.6872 20.2003C28.2075 20.7117 28.8256 21.1088 29.5 21.373V11.627ZM33.5 21.373C34.1744 21.1088 34.7925 20.7117 35.3128 20.2003C36.3172 19.213 36.875 17.8812 36.875 16.5C36.875 15.1188 36.3172 13.787 35.3128 12.7997C34.7925 12.2883 34.1744 11.8912 33.5 11.627V21.373ZM53.625 0C54.7296 0 55.625 0.89543 55.625 2V36.4629C57.3569 36.8361 58.9631 37.69 60.242 38.9472C62.0038 40.6792 63 43.0356 63 45.5C63 47.9644 62.0038 50.3208 60.242 52.0528C58.9631 53.31 57.3569 54.1639 55.625 54.5371V60C55.625 61.1046 54.7296 62 53.625 62C52.5204 62 51.625 61.1046 51.625 60V54.5371C49.8931 54.1639 48.2869 53.31 47.008 52.0528C45.2462 50.3208 44.25 47.9644 44.25 45.5C44.25 43.0356 45.2462 40.6792 47.008 38.9472C48.2869 37.69 49.8931 36.8361 51.625 36.4629V2C51.625 0.89543 52.5204 0 53.625 0ZM51.625 40.627C50.9506 40.8912 50.3325 41.2883 49.8122 41.7997C48.8078 42.787 48.25 44.1188 48.25 45.5C48.25 46.8812 48.8078 48.213 49.8122 49.2003C50.3325 49.7117 50.9506 50.1088 51.625 50.373V40.627ZM55.625 50.373C56.2994 50.1088 56.9175 49.7117 57.4378 49.2003C58.4422 48.213 59 46.8812 59 45.5C59 44.1188 58.4422 42.787 57.4378 41.7997C56.9175 41.2883 56.2994 40.8912 55.625 40.627V50.373Z" fill="url(#paint0_linear_961_360)"/>
<defs>
<linearGradient id="paint0_linear_961_360" x1="31.5" y1="0" x2="31.5" y2="62" gradientUnits="userSpaceOnUse">
<stop stop-color="#3B40FF"/>
<stop offset="1" stop-color="#AB00E9"/>
</linearGradient>
</defs>
</svg>
