<svg width="683" height="583" viewBox="0 0 683 583" fill="none" xmlns="http://www.w3.org/2000/svg">
<path d="M503.141 383.493L410.804 49.0656L412.921 48.4727L505.258 382.912L503.141 383.493Z" fill="url(#paint0_linear_961_187)"/>
<path d="M75.6143 267.258L74.4164 265.419L411.264 47.8438L412.462 49.6951L75.6143 267.258Z" fill="url(#paint1_linear_961_187)"/>
<path d="M75.1302 267.428L74.9002 265.25L533.21 218.555L533.44 220.733L75.1302 267.428Z" fill="url(#paint2_linear_961_187)"/>
<path d="M137.918 186.574L89.5293 125.432H263.882C223.443 145.651 197.5 184.529 196.133 186.574H137.918Z" fill="url(#paint3_linear_961_187)"/>
<path d="M137.918 186.574V217.224L89.5292 156.082V125.432L137.918 186.574Z" fill="url(#paint4_linear_961_187)"/>
<path d="M196.629 216.486C196.677 216.414 196.737 216.329 196.786 216.256C196.871 216.123 196.967 215.99 197.076 215.833C197.137 215.736 197.209 215.639 197.282 215.542C197.391 215.385 197.512 215.204 197.645 215.022C197.73 214.901 197.826 214.768 197.923 214.635C198.056 214.453 198.189 214.248 198.335 214.054C198.444 213.909 198.552 213.752 198.673 213.594C198.831 213.376 199 213.146 199.17 212.904C199.291 212.735 199.412 212.578 199.545 212.396C199.738 212.142 199.944 211.864 200.15 211.586C200.283 211.416 200.404 211.247 200.537 211.065C200.791 210.726 201.057 210.376 201.336 210.013C201.444 209.879 201.541 209.746 201.65 209.601C202.037 209.093 202.449 208.573 202.872 208.028C202.969 207.907 203.078 207.774 203.175 207.641C203.514 207.217 203.852 206.782 204.203 206.346C204.373 206.128 204.554 205.911 204.724 205.693C205.026 205.318 205.329 204.943 205.655 204.543C205.861 204.301 206.067 204.047 206.272 203.793C206.587 203.418 206.902 203.031 207.228 202.643C207.446 202.377 207.676 202.111 207.906 201.833C208.233 201.446 208.572 201.046 208.91 200.659C209.152 200.381 209.394 200.09 209.648 199.8C209.999 199.401 210.35 198.989 210.713 198.578C210.967 198.287 211.221 197.997 211.488 197.694C211.863 197.271 212.262 196.835 212.661 196.4C212.915 196.109 213.17 195.831 213.436 195.541C213.871 195.057 214.331 194.573 214.779 194.089C215.009 193.834 215.239 193.592 215.481 193.338C216.158 192.624 216.848 191.886 217.55 191.16C217.574 191.136 217.598 191.112 217.622 191.088C218.348 190.325 219.099 189.563 219.873 188.801C220.115 188.559 220.369 188.305 220.623 188.063C221.156 187.542 221.676 187.01 222.221 186.49C222.535 186.187 222.85 185.885 223.164 185.582C223.661 185.098 224.157 184.626 224.677 184.142C225.016 183.815 225.367 183.489 225.718 183.174C226.214 182.714 226.722 182.242 227.23 181.783C227.593 181.456 227.956 181.117 228.331 180.79C228.852 180.331 229.372 179.871 229.892 179.399C230.267 179.072 230.642 178.733 231.03 178.407C231.574 177.935 232.119 177.475 232.675 177.003C233.05 176.688 233.438 176.362 233.813 176.047C234.406 175.563 234.998 175.067 235.604 174.583C235.967 174.293 236.317 174.002 236.68 173.7C237.394 173.131 238.108 172.574 238.834 172.006C239.1 171.8 239.367 171.594 239.633 171.388C240.637 170.626 241.641 169.864 242.67 169.114C242.9 168.944 243.13 168.787 243.36 168.617C244.17 168.037 244.969 167.456 245.792 166.887C246.167 166.621 246.566 166.367 246.941 166.101C247.619 165.629 248.309 165.169 248.999 164.709C249.434 164.419 249.87 164.14 250.317 163.862C250.995 163.426 251.661 162.991 252.35 162.567C252.762 162.313 253.173 162.059 253.584 161.805C254.286 161.382 255 160.946 255.714 160.535C256.126 160.293 256.549 160.051 256.973 159.809C257.735 159.373 258.509 158.937 259.296 158.514C259.671 158.308 260.034 158.102 260.409 157.909C261.559 157.292 262.72 156.687 263.894 156.094V125.432C262.72 126.025 261.559 126.63 260.409 127.247C260.034 127.452 259.671 127.658 259.296 127.852C258.521 128.275 257.747 128.711 256.973 129.146C256.549 129.388 256.138 129.63 255.714 129.872C255 130.296 254.286 130.719 253.584 131.143C253.173 131.397 252.762 131.651 252.35 131.905C252.108 132.05 251.866 132.196 251.624 132.353C251.177 132.631 250.753 132.922 250.305 133.2C249.87 133.478 249.434 133.757 248.999 134.047C248.297 134.507 247.607 134.979 246.929 135.451C246.554 135.705 246.167 135.971 245.792 136.225C244.969 136.794 244.158 137.375 243.348 137.955C243.118 138.125 242.888 138.282 242.658 138.452C241.629 139.202 240.613 139.964 239.609 140.726C239.342 140.932 239.088 141.138 238.822 141.331C238.096 141.9 237.358 142.469 236.644 143.038C236.281 143.328 235.93 143.618 235.567 143.909C234.962 144.393 234.369 144.889 233.776 145.373C233.389 145.688 233.026 146.002 232.639 146.329C232.082 146.801 231.526 147.273 230.981 147.732C230.606 148.059 230.231 148.386 229.856 148.713C229.323 149.172 228.803 149.644 228.283 150.104C227.92 150.431 227.545 150.77 227.182 151.096C226.673 151.568 226.165 152.028 225.669 152.5C225.318 152.827 224.979 153.141 224.641 153.468C224.132 153.952 223.624 154.436 223.116 154.92C222.801 155.223 222.487 155.513 222.184 155.815C221.64 156.348 221.107 156.868 220.587 157.401C220.345 157.643 220.091 157.897 219.837 158.139C219.075 158.913 218.324 159.675 217.586 160.426C217.562 160.45 217.538 160.474 217.514 160.498C216.812 161.236 216.11 161.962 215.444 162.676C215.202 162.93 214.973 163.184 214.743 163.426C214.283 163.91 213.835 164.407 213.399 164.879C213.133 165.169 212.879 165.447 212.625 165.738C212.226 166.173 211.839 166.609 211.451 167.044C211.197 167.335 210.943 167.625 210.689 167.916C210.326 168.327 209.963 168.739 209.612 169.15C209.37 169.44 209.128 169.719 208.886 169.997C208.547 170.396 208.208 170.796 207.882 171.183C207.652 171.449 207.422 171.727 207.204 171.993C206.877 172.381 206.563 172.768 206.248 173.143C206.043 173.397 205.837 173.639 205.631 173.893C205.317 174.28 205.002 174.656 204.699 175.043C204.53 175.261 204.348 175.478 204.179 175.696C203.828 176.144 203.489 176.567 203.151 176.991C203.054 177.112 202.945 177.257 202.848 177.378C202.425 177.923 202.013 178.443 201.626 178.951C201.517 179.096 201.42 179.217 201.311 179.363C201.033 179.726 200.767 180.076 200.513 180.415C200.38 180.597 200.259 180.766 200.126 180.936C199.92 181.214 199.714 181.48 199.521 181.746C199.387 181.916 199.279 182.085 199.145 182.254C198.976 182.484 198.807 182.714 198.649 182.944C198.528 183.102 198.419 183.259 198.31 183.404C198.165 183.61 198.02 183.803 197.899 183.985C197.802 184.118 197.718 184.251 197.621 184.372C197.488 184.554 197.367 184.723 197.258 184.892C197.185 184.989 197.113 185.098 197.052 185.183C196.943 185.34 196.846 185.473 196.762 185.606C196.701 185.691 196.653 185.764 196.604 185.836C196.52 185.969 196.447 186.066 196.387 186.163C196.362 186.211 196.326 186.26 196.302 186.296C196.217 186.417 196.157 186.514 196.12 186.574V217.224C196.157 217.164 196.229 217.067 196.302 216.946C196.326 216.91 196.362 216.861 196.387 216.813C196.471 216.716 196.544 216.619 196.629 216.486Z" fill="url(#paint5_linear_961_187)"/>
<path d="M196.133 186.574H137.919V217.224H196.133V186.574Z" fill="url(#paint6_linear_961_187)"/>
<path d="M499.232 125.432V156.082L450.299 217.224V186.574L499.232 125.432Z" fill="url(#paint7_linear_961_187)"/>
<path d="M450.299 186.574V217.224C450.299 217.224 450.299 217.224 371.611 217.224V186.574C450.299 186.574 450.299 186.574 450.299 186.574Z" fill="url(#paint8_linear_961_187)"/>
<path d="M450.299 186.574V217.224C450.299 217.224 450.299 217.224 450.287 217.224L450.299 186.574Z" fill="url(#paint9_linear_961_187)"/>
<path d="M450.287 186.574V217.224C450.117 217.224 446.487 217.224 371.611 217.224V186.574C446.499 186.574 450.117 186.574 450.287 186.574Z" fill="url(#paint10_linear_961_187)"/>
<path d="M274.506 354.125C274.506 354.065 274.518 353.992 274.518 353.92C274.53 353.799 274.53 353.678 274.542 353.545C274.542 353.46 274.554 353.375 274.554 353.291C274.566 353.145 274.578 353.012 274.591 352.855C274.603 352.758 274.603 352.661 274.615 352.565C274.627 352.407 274.639 352.238 274.651 352.068C274.663 351.947 274.675 351.826 274.687 351.705C274.699 351.536 274.712 351.367 274.736 351.197C274.748 351.064 274.76 350.919 274.772 350.774C274.784 350.592 274.808 350.411 274.82 350.229C274.833 350.084 274.857 349.927 274.869 349.769C274.893 349.576 274.917 349.37 274.929 349.164C274.941 349.007 274.966 348.838 274.99 348.668C275.014 348.45 275.038 348.233 275.075 348.003C275.099 347.821 275.123 347.652 275.135 347.458C275.159 347.228 275.196 346.986 275.232 346.756C275.256 346.563 275.28 346.369 275.304 346.176C275.341 345.934 275.377 345.679 275.413 345.425C275.438 345.22 275.474 345.014 275.498 344.808C275.534 344.542 275.583 344.276 275.619 344.01C275.655 343.792 275.68 343.586 275.716 343.368C275.764 343.078 275.813 342.775 275.861 342.485C275.897 342.279 275.934 342.062 275.97 341.856C276.03 341.529 276.079 341.202 276.139 340.876C276.176 340.67 276.212 340.464 276.248 340.259C276.321 339.847 276.406 339.424 276.49 339C276.514 338.867 276.539 338.734 276.563 338.601C276.672 338.032 276.793 337.451 276.914 336.858C276.95 336.689 276.986 336.508 277.023 336.338C277.107 335.915 277.204 335.479 277.301 335.043C277.349 334.813 277.41 334.571 277.458 334.329C277.543 333.942 277.628 333.555 277.725 333.168C277.785 332.914 277.846 332.648 277.906 332.381C277.991 332.006 278.088 331.619 278.184 331.232C278.257 330.953 278.33 330.663 278.402 330.373C278.499 329.998 278.596 329.622 278.693 329.235C278.765 328.933 278.85 328.63 278.935 328.328C279.031 327.94 279.14 327.565 279.249 327.178C279.334 326.864 279.419 326.549 279.515 326.234C279.624 325.847 279.733 325.448 279.854 325.061C279.951 324.734 280.048 324.407 280.145 324.081C280.266 323.681 280.374 323.282 280.495 322.883C280.592 322.556 280.701 322.217 280.798 321.878C280.919 321.479 281.052 321.068 281.185 320.656C281.294 320.317 281.403 319.979 281.512 319.628C281.645 319.216 281.79 318.793 281.923 318.369C282.044 318.018 282.153 317.679 282.274 317.329C282.419 316.905 282.565 316.482 282.722 316.046C282.843 315.695 282.964 315.344 283.097 314.981C283.254 314.545 283.412 314.098 283.581 313.662C283.714 313.311 283.835 312.96 283.968 312.609C284.138 312.15 284.319 311.69 284.501 311.218C284.634 310.879 284.767 310.528 284.9 310.189C285.094 309.693 285.299 309.185 285.505 308.689C285.638 308.374 285.759 308.06 285.892 307.745C286.134 307.152 286.388 306.547 286.642 305.954C286.739 305.724 286.836 305.495 286.933 305.253C287.296 304.418 287.659 303.583 288.046 302.736C288.131 302.542 288.228 302.336 288.324 302.143C288.615 301.489 288.917 300.836 289.232 300.183C289.377 299.868 289.534 299.553 289.68 299.251C289.946 298.706 290.2 298.162 290.466 297.617C290.648 297.254 290.829 296.903 291.011 296.54C291.265 296.032 291.519 295.524 291.785 295.016C291.979 294.641 292.184 294.265 292.378 293.878C292.644 293.382 292.898 292.886 293.165 292.39C293.37 292.003 293.588 291.603 293.806 291.216C294.072 290.72 294.338 290.236 294.616 289.74C294.834 289.341 295.064 288.941 295.294 288.542C295.572 288.046 295.851 287.562 296.141 287.066C296.383 286.667 296.613 286.255 296.855 285.856C297.145 285.372 297.436 284.876 297.738 284.392C297.992 283.98 298.234 283.569 298.489 283.157C298.791 282.661 299.106 282.177 299.42 281.681C299.674 281.27 299.941 280.87 300.207 280.459C300.534 279.963 300.86 279.467 301.187 278.971C301.453 278.559 301.731 278.148 302.01 277.736C302.349 277.24 302.687 276.732 303.038 276.236C303.317 275.837 303.595 275.425 303.885 275.026C304.248 274.518 304.611 274.01 304.986 273.489C305.277 273.09 305.555 272.691 305.846 272.291C306.233 271.771 306.62 271.239 307.019 270.718C307.31 270.331 307.588 269.944 307.891 269.569C308.314 269.012 308.75 268.456 309.185 267.911C309.464 267.56 309.73 267.209 310.02 266.846C310.528 266.217 311.049 265.576 311.569 264.947C311.799 264.668 312.017 264.402 312.247 264.124C312.997 263.216 313.771 262.321 314.546 261.413C314.691 261.244 314.86 261.062 315.005 260.893C315.647 260.167 316.288 259.429 316.941 258.703C317.232 258.376 317.534 258.061 317.837 257.735C318.369 257.154 318.902 256.585 319.434 256.004C319.773 255.641 320.136 255.278 320.487 254.915C320.995 254.383 321.503 253.851 322.036 253.318C322.411 252.943 322.798 252.556 323.173 252.181C323.681 251.673 324.202 251.164 324.722 250.656C325.121 250.269 325.533 249.882 325.944 249.494C326.464 248.998 326.985 248.502 327.517 248.006C327.941 247.619 328.364 247.22 328.8 246.832C329.332 246.348 329.877 245.852 330.421 245.368C330.857 244.969 331.304 244.582 331.752 244.195C332.297 243.711 332.853 243.239 333.41 242.755C333.87 242.367 334.33 241.968 334.801 241.581C335.37 241.109 335.939 240.637 336.52 240.165C336.992 239.778 337.476 239.391 337.96 239.004C338.54 238.532 339.146 238.072 339.738 237.6C340.235 237.213 340.719 236.838 341.227 236.45C341.832 235.978 342.461 235.519 343.078 235.059C343.586 234.684 344.082 234.309 344.591 233.934C345.232 233.462 345.885 233.002 346.539 232.542C347.047 232.179 347.555 231.816 348.063 231.453C348.741 230.981 349.443 230.509 350.133 230.037C350.641 229.698 351.137 229.348 351.645 229.009C352.383 228.513 353.133 228.029 353.884 227.545C354.368 227.23 354.852 226.915 355.348 226.601C356.074 226.141 356.812 225.693 357.55 225.233C358.119 224.883 358.663 224.532 359.244 224.193C360.018 223.721 360.817 223.261 361.604 222.801C362.148 222.475 362.693 222.16 363.249 221.833C364.145 221.325 365.052 220.817 365.972 220.309C366.444 220.042 366.903 219.776 367.375 219.522C368.779 218.76 370.195 218.01 371.635 217.259V186.609C370.195 187.36 368.779 188.11 367.375 188.872C366.903 189.126 366.444 189.392 365.972 189.659C365.064 190.167 364.145 190.663 363.249 191.183C362.693 191.498 362.16 191.825 361.616 192.139C360.817 192.611 360.018 193.071 359.244 193.543C358.675 193.882 358.131 194.233 357.574 194.571C356.909 194.983 356.243 195.382 355.59 195.793C355.517 195.842 355.432 195.89 355.36 195.939C354.864 196.253 354.38 196.568 353.896 196.883C353.146 197.367 352.395 197.851 351.657 198.347C351.149 198.685 350.641 199.036 350.145 199.375C349.455 199.847 348.753 200.319 348.075 200.791C347.555 201.154 347.059 201.517 346.551 201.88C345.897 202.34 345.244 202.812 344.603 203.271C344.094 203.647 343.586 204.022 343.09 204.397C342.473 204.857 341.844 205.328 341.239 205.788C340.743 206.176 340.247 206.551 339.751 206.938C339.158 207.398 338.565 207.87 337.972 208.341C337.488 208.729 337.004 209.116 336.532 209.503C335.951 209.975 335.382 210.447 334.814 210.919C334.342 211.306 333.882 211.693 333.422 212.093C332.865 212.564 332.309 213.048 331.764 213.532C331.317 213.92 330.869 214.319 330.433 214.706C329.889 215.19 329.356 215.674 328.812 216.17C328.388 216.558 327.953 216.957 327.529 217.344C326.997 217.84 326.476 218.336 325.944 218.832C325.545 219.22 325.133 219.607 324.734 219.994C324.214 220.502 323.693 221.01 323.185 221.531C322.81 221.906 322.423 222.293 322.048 222.668C321.528 223.201 321.019 223.733 320.499 224.265C320.148 224.628 319.797 224.991 319.446 225.354C318.902 225.935 318.369 226.504 317.849 227.085C317.559 227.411 317.244 227.726 316.954 228.053C316.288 228.791 315.635 229.529 314.993 230.267C314.848 230.437 314.703 230.594 314.558 230.763C313.771 231.671 313.009 232.566 312.247 233.474C312.029 233.74 311.811 234.006 311.593 234.272C311.061 234.914 310.54 235.555 310.032 236.196C309.754 236.547 309.488 236.898 309.209 237.249C308.774 237.806 308.326 238.362 307.903 238.931C307.612 239.318 307.322 239.693 307.043 240.08C306.644 240.613 306.245 241.133 305.858 241.666C305.567 242.065 305.289 242.452 304.999 242.851C304.623 243.36 304.26 243.88 303.897 244.388C303.607 244.787 303.329 245.199 303.05 245.598C302.699 246.106 302.361 246.603 302.022 247.099C301.744 247.51 301.477 247.909 301.211 248.321C300.884 248.817 300.558 249.313 300.231 249.821C299.965 250.233 299.711 250.632 299.445 251.043C299.13 251.539 298.815 252.036 298.513 252.532C298.259 252.943 298.005 253.342 297.763 253.754C297.46 254.25 297.17 254.734 296.879 255.23C296.637 255.629 296.395 256.041 296.165 256.44C295.875 256.936 295.597 257.432 295.318 257.916C295.088 258.316 294.859 258.715 294.641 259.114C294.362 259.61 294.096 260.106 293.83 260.59C293.612 260.978 293.406 261.365 293.189 261.764C292.922 262.272 292.656 262.768 292.39 263.265C292.196 263.64 291.991 264.015 291.797 264.39C291.531 264.91 291.277 265.418 291.023 265.927C290.841 266.278 290.66 266.641 290.49 266.991C290.224 267.536 289.958 268.093 289.704 268.637C289.559 268.952 289.401 269.266 289.256 269.569C288.941 270.234 288.639 270.888 288.349 271.541C288.264 271.735 288.167 271.928 288.082 272.122C287.707 272.969 287.332 273.804 286.969 274.639C286.872 274.869 286.776 275.099 286.679 275.329C286.425 275.934 286.17 276.539 285.916 277.131C285.783 277.446 285.662 277.761 285.541 278.063C285.336 278.571 285.13 279.08 284.936 279.576C284.803 279.915 284.67 280.253 284.537 280.592C284.356 281.064 284.174 281.524 284.005 281.996C283.871 282.347 283.75 282.698 283.617 283.049C283.448 283.496 283.291 283.932 283.133 284.38C283.012 284.73 282.879 285.081 282.758 285.432C282.613 285.868 282.456 286.291 282.311 286.715C282.19 287.066 282.081 287.405 281.96 287.743C281.814 288.167 281.681 288.59 281.548 289.002C281.439 289.341 281.33 289.679 281.221 290.018C281.088 290.43 280.967 290.841 280.834 291.24C280.725 291.579 280.629 291.906 280.532 292.233C280.411 292.632 280.29 293.031 280.169 293.431C280.072 293.757 279.975 294.084 279.89 294.399C279.782 294.798 279.661 295.185 279.552 295.572C279.467 295.887 279.37 296.202 279.285 296.516C279.177 296.903 279.08 297.291 278.971 297.666C278.886 297.968 278.814 298.271 278.729 298.573C278.632 298.96 278.535 299.335 278.438 299.723C278.366 300.013 278.293 300.291 278.221 300.582C278.124 300.969 278.039 301.356 277.942 301.743C277.882 301.998 277.821 302.264 277.761 302.518C277.664 302.917 277.579 303.304 277.495 303.692C277.446 303.921 277.386 304.163 277.337 304.393C277.241 304.841 277.144 305.265 277.059 305.7C277.023 305.87 276.986 306.039 276.95 306.196C276.829 306.789 276.708 307.37 276.599 307.939C276.575 308.072 276.551 308.193 276.527 308.326C276.442 308.762 276.357 309.185 276.285 309.609C276.248 309.814 276.212 310.008 276.176 310.214C276.115 310.552 276.055 310.879 276.006 311.206C275.97 311.424 275.934 311.629 275.897 311.835C275.849 312.138 275.801 312.44 275.752 312.73C275.716 312.948 275.692 313.154 275.655 313.36C275.619 313.638 275.571 313.904 275.534 314.17C275.498 314.376 275.474 314.582 275.45 314.788C275.413 315.042 275.377 315.296 275.341 315.538C275.317 315.731 275.292 315.925 275.268 316.119C275.232 316.361 275.208 316.59 275.171 316.832C275.147 317.014 275.123 317.195 275.111 317.365C275.087 317.595 275.062 317.813 275.026 318.03C275.002 318.2 274.99 318.357 274.966 318.527C274.941 318.732 274.917 318.938 274.893 319.144C274.881 319.301 274.857 319.458 274.845 319.603C274.82 319.797 274.808 319.979 274.784 320.16C274.772 320.305 274.76 320.45 274.748 320.584C274.736 320.765 274.712 320.934 274.699 321.104C274.687 321.225 274.675 321.346 274.663 321.455C274.651 321.624 274.639 321.794 274.627 321.951C274.615 322.048 274.615 322.144 274.603 322.229C274.591 322.386 274.578 322.532 274.566 322.665C274.566 322.749 274.554 322.834 274.554 322.919C274.542 323.052 274.542 323.173 274.53 323.294C274.53 323.355 274.518 323.427 274.518 323.488C274.506 323.645 274.506 323.778 274.494 323.911C274.494 323.923 274.494 323.947 274.494 323.96C274.482 324.238 274.47 324.456 274.47 324.589V324.601V355.251C274.47 355.106 274.482 354.888 274.494 354.597C274.494 354.585 274.494 354.561 274.494 354.537C274.494 354.404 274.506 354.271 274.506 354.125Z" fill="url(#paint11_linear_961_187)"/>
<path d="M274.458 324.601V355.251C274.276 355.046 270.876 351.186 214.84 279.625V248.975C270.876 320.536 274.276 324.396 274.458 324.601Z" fill="url(#paint12_linear_961_187)"/>
<path d="M274.457 324.601V355.251C274.276 355.046 270.876 351.186 214.839 279.625V248.975C270.876 320.536 274.276 324.396 274.457 324.601Z" fill="url(#paint13_linear_961_187)"/>
<path d="M371.611 186.574C450.299 186.574 450.299 186.574 450.299 186.574L499.232 125.432H336.423C332.394 126.23 255.799 141.428 214.84 248.963C270.876 320.524 274.276 324.384 274.458 324.59H341.07C342.437 322.545 368.38 283.667 408.819 263.447L292.511 263.036C292.052 263.847 291.616 264.669 291.18 265.48C304.503 239.029 328.473 208.887 371.611 186.574Z" fill="url(#paint14_linear_961_187)"/>
<path d="M341.578 354.503C341.614 354.442 341.675 354.37 341.711 354.309C341.808 354.176 341.904 354.031 342.013 353.874C342.074 353.777 342.146 353.68 342.219 353.571C342.328 353.414 342.449 353.232 342.582 353.051C342.667 352.93 342.764 352.797 342.86 352.664C342.993 352.47 343.139 352.276 343.284 352.071C343.393 351.926 343.502 351.768 343.611 351.611C343.768 351.393 343.937 351.163 344.107 350.921C344.228 350.752 344.349 350.595 344.482 350.413C344.675 350.147 344.881 349.869 345.087 349.59C345.22 349.421 345.341 349.251 345.462 349.082C345.728 348.731 346.006 348.368 346.285 347.993C346.382 347.872 346.466 347.751 346.563 347.63C346.95 347.122 347.362 346.589 347.785 346.045C347.882 345.924 347.979 345.791 348.076 345.67C348.414 345.246 348.753 344.811 349.116 344.351C349.286 344.145 349.455 343.927 349.624 343.722C349.939 343.334 350.242 342.947 350.568 342.56C350.762 342.318 350.968 342.076 351.173 341.822C351.488 341.435 351.802 341.06 352.141 340.66C352.359 340.394 352.589 340.128 352.819 339.85C353.146 339.462 353.484 339.075 353.823 338.676C354.065 338.397 354.307 338.107 354.561 337.817C354.912 337.417 355.263 337.006 355.626 336.595C355.88 336.304 356.134 336.014 356.401 335.711C356.776 335.288 357.175 334.852 357.562 334.416C357.816 334.126 358.07 333.848 358.337 333.557C358.772 333.073 359.232 332.589 359.68 332.093C359.91 331.839 360.14 331.597 360.382 331.343C361.059 330.629 361.749 329.903 362.451 329.165C362.475 329.141 362.499 329.117 362.523 329.08C363.249 328.33 364 327.556 364.762 326.793C365.004 326.539 365.27 326.297 365.512 326.043C366.032 325.523 366.565 324.99 367.109 324.47C367.412 324.168 367.738 323.865 368.041 323.563C368.537 323.079 369.045 322.607 369.554 322.123C369.892 321.796 370.243 321.481 370.594 321.155C371.09 320.695 371.599 320.223 372.107 319.763C372.47 319.424 372.845 319.098 373.208 318.759C373.716 318.299 374.236 317.839 374.769 317.379C375.144 317.053 375.519 316.714 375.906 316.387C376.451 315.915 376.995 315.455 377.552 314.983C377.927 314.669 378.302 314.342 378.689 314.028C379.282 313.544 379.875 313.047 380.48 312.563C380.843 312.273 381.194 311.971 381.569 311.68C382.283 311.111 383.009 310.543 383.747 309.974C384.013 309.768 384.268 309.563 384.522 309.369C385.526 308.607 386.53 307.844 387.559 307.094C387.801 306.913 388.055 306.743 388.297 306.574C389.083 306.005 389.882 305.436 390.693 304.868C391.08 304.601 391.467 304.335 391.854 304.069C392.532 303.609 393.222 303.137 393.911 302.69C394.347 302.399 394.795 302.121 395.23 301.83C395.896 301.395 396.573 300.971 397.251 300.548C397.662 300.294 398.086 300.04 398.497 299.786C399.199 299.362 399.901 298.939 400.615 298.515C401.038 298.273 401.45 298.019 401.873 297.777C402.636 297.341 403.422 296.906 404.197 296.482C404.56 296.276 404.935 296.071 405.298 295.877C406.447 295.26 407.609 294.655 408.783 294.062V263.412C407.609 264.005 406.447 264.61 405.298 265.227C404.923 265.421 404.56 265.626 404.197 265.832C403.422 266.256 402.648 266.691 401.873 267.127C401.45 267.369 401.038 267.611 400.615 267.865C399.901 268.289 399.199 268.712 398.485 269.136C398.074 269.39 397.65 269.644 397.239 269.898C396.997 270.043 396.755 270.188 396.513 270.346C396.077 270.624 395.654 270.902 395.218 271.193C394.783 271.483 394.335 271.761 393.899 272.052C393.21 272.512 392.532 272.971 391.842 273.431C391.455 273.697 391.056 273.964 390.681 274.23C389.87 274.798 389.071 275.367 388.273 275.936C388.031 276.105 387.789 276.275 387.559 276.456C386.53 277.206 385.514 277.969 384.509 278.731C384.243 278.937 383.989 279.13 383.735 279.336C382.997 279.905 382.271 280.473 381.557 281.042C381.194 281.333 380.843 281.623 380.48 281.913C379.875 282.397 379.282 282.894 378.689 283.378C378.302 283.692 377.927 284.019 377.552 284.333C376.995 284.805 376.451 285.265 375.906 285.737C375.519 286.064 375.144 286.403 374.769 286.729C374.248 287.189 373.716 287.649 373.208 288.121C372.845 288.448 372.47 288.786 372.107 289.113C371.599 289.585 371.09 290.045 370.594 290.517C370.243 290.843 369.904 291.158 369.554 291.485C369.045 291.969 368.537 292.453 368.041 292.925C367.726 293.227 367.412 293.53 367.109 293.832C366.565 294.365 366.032 294.885 365.5 295.417C365.258 295.659 365.004 295.913 364.762 296.155C364 296.93 363.249 297.692 362.511 298.442C362.499 298.454 362.487 298.467 362.475 298.479C361.749 299.229 361.047 299.967 360.369 300.693C360.127 300.947 359.91 301.189 359.68 301.443C359.22 301.939 358.772 302.423 358.325 302.907C358.058 303.198 357.816 303.476 357.562 303.754C357.163 304.19 356.776 304.626 356.388 305.061C356.122 305.352 355.868 305.642 355.614 305.932C355.251 306.344 354.9 306.755 354.549 307.155C354.295 307.445 354.053 307.723 353.811 308.014C353.472 308.413 353.133 308.8 352.807 309.187C352.577 309.454 352.347 309.732 352.129 309.998C351.802 310.385 351.488 310.773 351.173 311.148C350.968 311.402 350.762 311.644 350.556 311.898C350.229 312.297 349.927 312.672 349.612 313.06C349.443 313.265 349.261 313.483 349.104 313.689C348.753 314.124 348.414 314.56 348.088 314.971C347.979 315.104 347.87 315.25 347.773 315.371C347.35 315.915 346.938 316.436 346.551 316.944C346.442 317.089 346.345 317.21 346.236 317.355C345.97 317.706 345.692 318.069 345.438 318.396C345.305 318.577 345.172 318.747 345.038 318.928C344.833 319.206 344.627 319.473 344.445 319.727C344.312 319.896 344.203 320.066 344.082 320.235C343.913 320.465 343.744 320.695 343.586 320.925C343.465 321.082 343.356 321.239 343.248 321.384C343.102 321.59 342.957 321.784 342.824 321.965C342.727 322.098 342.643 322.232 342.546 322.353C342.425 322.534 342.304 322.691 342.195 322.849C342.122 322.958 342.038 323.066 341.977 323.163C341.868 323.308 341.783 323.442 341.699 323.575C341.65 323.659 341.59 323.732 341.541 323.805C341.457 323.926 341.396 324.022 341.324 324.119C341.287 324.168 341.251 324.228 341.215 324.276C341.178 324.337 341.154 324.361 341.13 324.41C341.106 324.458 341.057 324.518 341.045 324.543V355.193C341.082 355.132 341.154 355.035 341.227 354.914C341.251 354.89 341.275 354.842 341.299 354.805C341.396 354.757 341.481 354.636 341.578 354.503Z" fill="url(#paint15_linear_961_187)"/>
<path d="M341.07 324.602H274.458V355.252H341.07V324.602Z" fill="url(#paint16_linear_961_187)"/>
<path d="M502.972 389.448L74.7189 267.393L75.3239 265.287L503.577 387.342L502.972 389.448Z" fill="url(#paint17_linear_961_187)"/>
<path d="M75.796 267.113L74.235 265.577L294.617 40.5723L296.19 42.109L75.796 267.113Z" fill="url(#paint18_linear_961_187)"/>
<path d="M532.436 220.273L410.973 49.4053L412.752 48.1348L534.215 219.003L532.436 220.273Z" fill="url(#paint19_linear_961_187)"/>
<path d="M252.593 439.749L250.56 438.914L410.852 48.3535L412.873 49.1884L252.593 439.749Z" fill="url(#paint20_linear_961_187)"/>
<path d="M250.814 440.111L74.2468 267.126L75.7835 265.553L252.351 438.55L250.814 440.111Z" fill="url(#paint21_linear_961_187)"/>
<path d="M251.794 440.414L251.359 438.26L503.056 387.318L503.492 389.472L251.794 440.414Z" fill="url(#paint22_linear_961_187)"/>
<path d="M504.351 388.589L502.197 388.201L532.242 219.451L534.408 219.838L504.351 388.589Z" fill="url(#paint23_linear_961_187)"/>
<path d="M411.796 49.8658L295.331 42.4362L295.476 40.2461L411.929 47.6757L411.796 49.8658Z" fill="url(#paint24_linear_961_187)"/>
<path d="M396.779 46.466L423.061 29.2715L414.772 51.2093L396.779 46.466Z" fill="url(#paint25_linear_961_187)"/>
<path d="M414.772 51.2093L419.02 60.8411L423.061 29.2715L414.772 51.2093Z" fill="url(#paint26_linear_961_187)"/>
<path d="M419.019 60.84L396.779 46.4648L414.772 51.2081L419.019 60.84Z" fill="url(#paint27_linear_961_187)"/>
<path d="M504.617 414.132L501.58 384.982L516.028 398.293L504.617 414.132Z" fill="url(#paint28_linear_961_187)"/>
<path d="M516.028 398.293L525.672 396.695L501.58 384.982L516.028 398.293Z" fill="url(#paint29_linear_961_187)"/>
<path d="M525.671 396.695L504.617 414.132L516.028 398.293L525.671 396.695Z" fill="url(#paint30_linear_961_187)"/>
<path d="M249.955 450.711L243.215 417.314L261.607 431.919L249.955 450.711Z" fill="url(#paint31_linear_961_187)"/>
<path d="M261.607 431.919L272.74 429.584L243.215 417.314L261.607 431.919Z" fill="url(#paint32_linear_961_187)"/>
<path d="M272.74 429.584L249.955 450.711L261.607 431.919L272.74 429.584Z" fill="url(#paint33_linear_961_187)"/>
<path d="M265.843 36.1061L289.463 11.5547L287.938 34.9929L265.843 36.1061Z" fill="url(#paint34_linear_961_187)"/>
<path d="M287.938 34.9929L296.191 42.8218L289.463 11.5547L287.938 34.9929Z" fill="url(#paint35_linear_961_187)"/>
<path d="M296.19 42.823L265.843 36.1074L287.938 34.9941L296.19 42.823Z" fill="url(#paint36_linear_961_187)"/>
<path d="M72.323 290.456L62.9453 243.967L88.5495 264.295L72.323 290.456Z" fill="url(#paint37_linear_961_187)"/>
<path d="M88.5495 264.295L104.05 261.052L62.9453 243.967L88.5495 264.295Z" fill="url(#paint38_linear_961_187)"/>
<path d="M104.05 261.051L72.323 290.454L88.5495 264.294L104.05 261.051Z" fill="url(#paint39_linear_961_187)"/>
<path d="M159.735 422.276L70.6894 459.327L103.348 399.273L159.735 422.276Z" fill="url(#paint40_linear_961_187)"/>
<path d="M103.348 399.273L92.4215 368.938L70.6894 459.326L103.348 399.273Z" fill="url(#paint41_linear_961_187)"/>
<path d="M92.4214 368.938L159.735 422.275L103.348 399.273L92.4214 368.938Z" fill="url(#paint42_linear_961_187)"/>
<path d="M516.015 240.869L531.104 206.879L538.631 219.971L516.015 240.869Z" fill="url(#paint43_linear_961_187)"/>
<path d="M538.631 219.971L550.283 216.281L531.105 206.879L538.631 219.971Z" fill="url(#paint44_linear_961_187)"/>
<path d="M550.283 216.281L516.015 240.869L538.631 219.972L550.283 216.281Z" fill="url(#paint45_linear_961_187)"/>
<path d="M597.487 91.1525L588.363 136.928L532.375 97.2027C553.515 94.9157 577.534 78.7376 578.792 77.8906L597.487 91.1525Z" fill="url(#paint46_linear_961_187)"/>
<path d="M597.487 91.1529L609.853 73.7285L600.73 119.504L588.375 136.928L597.487 91.1529Z" fill="url(#paint47_linear_961_187)"/>
<path d="M590.698 60.7681C590.65 60.7923 590.601 60.8286 590.553 60.8649C590.468 60.9133 590.384 60.9738 590.287 61.0343C590.226 61.0706 590.166 61.119 590.105 61.1553C590.008 61.2158 589.899 61.2884 589.778 61.361C589.706 61.4094 589.621 61.4699 589.537 61.5183C589.416 61.5909 589.294 61.6756 589.161 61.7603C589.065 61.8208 588.968 61.8813 588.871 61.9539C588.738 62.0386 588.581 62.1354 588.435 62.2322C588.326 62.3048 588.23 62.3653 588.109 62.4379C587.939 62.5468 587.77 62.6558 587.588 62.7647C587.479 62.8373 587.371 62.8978 587.25 62.9704C587.032 63.1035 586.802 63.2487 586.572 63.3818C586.487 63.4423 586.403 63.4907 586.306 63.5391C585.979 63.7327 585.64 63.9384 585.277 64.1562C585.193 64.2046 585.108 64.253 585.023 64.3014C584.745 64.4708 584.466 64.6281 584.164 64.8096C584.019 64.8943 583.874 64.979 583.728 65.0637C583.474 65.2089 583.232 65.3541 582.966 65.4993C582.809 65.5961 582.639 65.6929 582.47 65.7897C582.216 65.9349 581.962 66.0801 581.696 66.2253C581.514 66.3221 581.332 66.431 581.151 66.5278C580.885 66.673 580.619 66.8182 580.352 66.9634C580.159 67.0724 579.965 67.1812 579.772 67.278C579.493 67.4233 579.215 67.5806 578.937 67.7258C578.731 67.8347 578.537 67.9436 578.332 68.0525C578.041 68.2098 577.739 68.3671 577.436 68.5244C577.243 68.6333 577.037 68.7301 576.843 68.839C576.505 69.0084 576.166 69.1899 575.827 69.3593C575.645 69.444 575.476 69.5408 575.294 69.6255C574.786 69.8796 574.278 70.1337 573.746 70.3878C573.734 70.3999 573.709 70.3999 573.697 70.412C573.153 70.6782 572.608 70.9444 572.052 71.1985C571.87 71.2832 571.689 71.3679 571.507 71.4526C571.132 71.6341 570.745 71.8035 570.358 71.9851C570.14 72.0819 569.91 72.1908 569.692 72.2876C569.341 72.4449 568.99 72.6022 568.627 72.7595C568.385 72.8684 568.143 72.9652 567.901 73.0741C567.55 73.2193 567.199 73.3766 566.849 73.5218C566.594 73.6307 566.352 73.7275 566.098 73.8364C565.747 73.9816 565.396 74.1268 565.033 74.272C564.779 74.3688 564.525 74.4777 564.271 74.5745C563.908 74.7197 563.545 74.8528 563.182 74.998C562.928 75.0948 562.686 75.1916 562.432 75.2884C562.045 75.4336 561.658 75.5788 561.27 75.7119C561.04 75.7966 560.798 75.8813 560.568 75.9661C560.109 76.1234 559.649 76.2807 559.189 76.438C559.02 76.4985 558.85 76.559 558.681 76.6074C558.052 76.8131 557.422 77.0188 556.781 77.2124C556.636 77.2608 556.503 77.2971 556.358 77.3334C555.861 77.4786 555.365 77.6238 554.881 77.7569C554.651 77.8174 554.422 77.8779 554.192 77.9384C553.78 78.0473 553.381 78.1562 552.97 78.253C552.715 78.3135 552.461 78.374 552.207 78.4345C551.82 78.5313 551.421 78.616 551.033 78.7007C550.803 78.7491 550.562 78.7975 550.332 78.8459C549.932 78.9306 549.533 79.0032 549.134 79.0879C548.904 79.1363 548.674 79.1726 548.432 79.221C548.008 79.2936 547.585 79.3662 547.161 79.4267C546.956 79.463 546.762 79.4872 546.556 79.5235C545.939 79.6082 545.322 79.6929 544.705 79.7534L532.351 97.1657C532.968 97.1052 533.585 97.0205 534.202 96.9358C534.408 96.9116 534.601 96.8753 534.807 96.839C535.231 96.7785 535.654 96.7059 536.077 96.6333C536.307 96.597 536.537 96.5486 536.779 96.5002C537.179 96.4276 537.578 96.3429 537.977 96.2582C538.207 96.2098 538.449 96.1614 538.679 96.113C538.812 96.0888 538.957 96.0525 539.09 96.0283C539.345 95.9678 539.599 95.9073 539.853 95.8468C540.107 95.7863 540.361 95.7258 540.615 95.6653C541.026 95.5564 541.438 95.4475 541.849 95.3386C542.079 95.2781 542.309 95.2176 542.527 95.1571C543.023 95.024 543.519 94.8788 544.015 94.7215C544.161 94.6852 544.294 94.6368 544.439 94.6005C545.068 94.4069 545.709 94.2132 546.338 93.9954C546.508 93.9349 546.665 93.8865 546.835 93.826C547.294 93.6687 547.754 93.5114 548.214 93.3541C548.444 93.2694 548.686 93.1847 548.916 93.1C549.303 92.9548 549.69 92.8217 550.09 92.6765C550.344 92.5797 550.586 92.4829 550.84 92.3982C551.203 92.253 551.578 92.1199 551.941 91.9747C552.195 91.8779 552.449 91.769 552.703 91.6722C553.054 91.527 553.417 91.3818 553.768 91.2366C554.022 91.1277 554.276 91.0309 554.518 90.922C554.869 90.7768 555.22 90.6195 555.571 90.4743C555.813 90.3654 556.055 90.2686 556.297 90.1597C556.66 90.0024 557.011 89.8451 557.374 89.6757C557.592 89.5789 557.822 89.4821 558.039 89.3731C558.427 89.1916 558.814 89.0222 559.189 88.8407C559.37 88.756 559.552 88.6713 559.721 88.5866C560.278 88.3204 560.823 88.0663 561.367 87.8001C561.391 87.788 561.403 87.788 561.416 87.7759C561.936 87.5218 562.456 87.2677 562.964 87.0136C563.146 86.9289 563.315 86.8321 563.497 86.7474C563.836 86.578 564.186 86.3965 564.513 86.2271C564.719 86.1182 564.912 86.0214 565.106 85.9125C565.409 85.7552 565.711 85.5979 566.014 85.4406C566.219 85.3317 566.413 85.2227 566.606 85.1259C566.885 84.9686 567.175 84.8234 567.441 84.6782C567.635 84.5693 567.829 84.4725 568.022 84.3636C568.288 84.2184 568.555 84.0611 568.821 83.9159C569.002 83.8191 569.184 83.7102 569.365 83.6134C569.632 83.4682 569.886 83.323 570.14 83.1778C570.309 83.081 570.479 82.9842 570.636 82.8874C570.89 82.7422 571.144 82.597 571.398 82.4518C571.543 82.3671 571.689 82.2824 571.834 82.1977C572.124 82.0283 572.415 81.8589 572.693 81.6895C572.778 81.6411 572.862 81.5927 572.947 81.5443C573.298 81.3265 573.649 81.1208 573.976 80.9272C574.072 80.8666 574.145 80.8183 574.242 80.7699C574.472 80.6247 574.701 80.4915 574.919 80.3584C575.04 80.2858 575.137 80.2253 575.258 80.1527C575.44 80.0438 575.609 79.9349 575.779 79.826C575.887 79.7534 575.996 79.6929 576.105 79.6203C576.25 79.5235 576.408 79.4388 576.541 79.342C576.638 79.2815 576.734 79.221 576.831 79.1484C576.964 79.0637 577.085 78.9911 577.206 78.9064C577.291 78.8459 577.376 78.7975 577.448 78.7491C577.569 78.6765 577.666 78.6039 577.775 78.5434C577.836 78.5071 577.896 78.4587 577.956 78.4224C578.053 78.3619 578.138 78.3014 578.223 78.253C578.271 78.2167 578.32 78.1925 578.368 78.1562C578.453 78.1078 578.513 78.0594 578.574 78.0231C578.598 77.9989 578.634 77.9868 578.658 77.9626C578.731 77.9142 578.792 77.8779 578.828 77.8537L591.182 60.4414C591.146 60.4656 591.085 60.5019 591.013 60.5503C590.989 60.5624 590.952 60.5866 590.928 60.6108C590.843 60.6713 590.771 60.7197 590.698 60.7681Z" fill="url(#paint48_linear_961_187)"/>
<path d="M578.792 77.8771L591.158 60.4648L609.853 73.7267L597.487 91.1511L578.792 77.8771Z" fill="url(#paint49_linear_961_187)"/>
<path d="M455.26 433.748C455.26 435.272 454.365 436.035 452.586 436.035H447.31V440.112H443.922V428.557H452.586C454.365 428.557 455.26 429.319 455.26 430.844V433.748ZM451.981 431.001C451.981 430.287 451.763 430.045 451.122 430.045H447.31V434.558H451.122C451.751 434.558 451.981 434.316 451.981 433.602V431.001Z" fill="white"/>
<path d="M463.706 433.337H460.391C459.967 433.337 459.822 433.482 459.822 433.906V440.113H456.688V431.631H459.519L459.652 432.563H459.689C459.737 431.945 460.197 431.631 461.056 431.631H463.706V433.337Z" fill="white"/>
<path d="M475.117 437.935C475.117 439.387 474.415 440.125 473.035 440.125H467.046C465.606 440.125 464.977 439.327 464.977 437.935V433.821C464.977 432.442 465.606 431.631 467.046 431.631H473.035C474.415 431.631 475.117 432.369 475.117 433.821V437.935ZM471.971 433.555C471.971 433.168 471.789 432.974 471.45 432.974H468.631C468.292 432.974 468.111 433.168 468.111 433.555V438.213C468.111 438.589 468.292 438.782 468.631 438.782H471.45C471.789 438.782 471.971 438.589 471.971 438.213V433.555Z" fill="white"/>
<path d="M483.926 440.112H479.799C478.384 440.112 477.718 439.181 477.718 437.753V432.901H476.072V431.63H477.718V429.9L480.864 429.488V431.63H483.913V432.901H480.864V438.019C480.864 438.515 481.07 438.781 481.566 438.781H483.926V440.112Z" fill="white"/>
<path d="M495.324 436.653H488.318V438.202C488.318 438.577 488.5 438.77 488.839 438.77H493.642V440.114H487.253C485.813 440.114 485.184 439.315 485.184 437.923V433.809C485.184 432.43 485.813 431.619 487.253 431.619H493.243C494.622 431.619 495.324 432.357 495.324 433.809V436.653ZM492.178 435.31V433.543C492.178 433.156 491.997 432.962 491.658 432.962H488.839C488.5 432.962 488.318 433.156 488.318 433.543V435.31H492.178Z" fill="white"/>
<path d="M504 440.114H498.652C497.212 440.114 496.583 439.315 496.583 437.923V433.809C496.583 432.43 497.212 431.619 498.652 431.619H504V432.962H500.237C499.898 432.962 499.717 433.156 499.717 433.543V438.202C499.717 438.577 499.898 438.77 500.237 438.77H504V440.114Z" fill="white"/>
<path d="M512.7 440.112H508.574C507.17 440.112 506.493 439.181 506.493 437.753V432.901H504.847V431.63H506.493V429.9L509.639 429.488V431.63H512.688V432.901H509.639V438.019C509.639 438.515 509.845 438.781 510.341 438.781H512.7V440.112Z" fill="white"/>
<path d="M531.964 433.748C531.964 435.272 531.069 436.035 529.29 436.035H524.014V440.112H520.626V428.557H529.29C531.069 428.557 531.964 429.319 531.964 430.844V433.748ZM528.685 431.001C528.685 430.287 528.467 430.045 527.826 430.045H524.014V434.558H527.826C528.455 434.558 528.685 434.316 528.685 433.602V431.001Z" fill="white"/>
<path d="M540.41 433.337H537.094C536.671 433.337 536.525 433.482 536.525 433.906V440.113H533.392V431.631H536.223L536.356 432.563H536.392C536.441 431.945 536.901 431.631 537.76 431.631H540.41V433.337Z" fill="white"/>
<path d="M545.008 430.712H541.801V429.199H545.008V430.712ZM544.996 440.114H541.85V431.631H544.996V440.114Z" fill="white"/>
<path d="M557.629 431.631L553.611 440.113H550.465L546.388 431.631H549.764L552.994 438.419L556.189 431.631H557.629Z" fill="white"/>
<path d="M568.954 440.114H566.22L566.074 439.23H566.038C565.832 439.763 565.566 440.114 564.901 440.114H560.835C559.419 440.114 558.802 439.315 558.802 437.367V436.967C558.802 434.983 559.383 434.221 560.895 434.221H565.808V433.253C565.808 433.011 565.663 432.89 565.373 432.89H560.871V431.619H566.837C568.252 431.619 568.954 432.357 568.954 433.821V440.114ZM565.808 435.576H562.469C562.106 435.576 561.948 435.757 561.948 436.145V438.226C561.948 438.601 562.105 438.782 562.42 438.782H565.288C565.651 438.782 565.808 438.637 565.808 438.226V435.576Z" fill="white"/>
<path d="M577.63 440.114H572.282C570.842 440.114 570.213 439.315 570.213 437.923V433.809C570.213 432.43 570.842 431.619 572.282 431.619H577.63V432.962H573.867C573.528 432.962 573.347 433.156 573.347 433.543V438.202C573.347 438.577 573.528 438.77 573.867 438.77H577.63V440.114Z" fill="white"/>
<path d="M588.811 441.154C588.811 441.771 588.641 442.292 588.303 442.703C587.964 443.126 587.443 443.332 586.742 443.332H580.849V441.989H584.975C585.483 441.989 585.677 441.735 585.677 441.227V439.206H585.628C585.459 439.835 585.193 440.101 584.636 440.101H580.825C579.469 440.101 578.792 439.375 578.792 437.899V431.619H581.926V438.19C581.926 438.565 582.107 438.758 582.494 438.758H585.132C585.532 438.758 585.689 438.613 585.689 438.19V431.619H588.823V441.154H588.811Z" fill="white"/>
<path d="M9.54713 233.984H3.38806V237.493H8.99049V238.969H3.38806V244.064H0V232.508H9.55924V233.984H9.54713Z" fill="white"/>
<path d="M20.9939 244.051H18.2593L18.1141 243.168H18.0777C17.872 243.7 17.6058 244.051 16.9403 244.051H12.8746C11.471 244.051 10.8418 243.252 10.8418 241.304V240.905C10.8418 238.92 11.4226 238.158 12.9351 238.158H17.8478V237.19C17.8478 236.948 17.7026 236.827 17.4122 236.827H12.9109V235.557H18.8763C20.292 235.557 20.9939 236.295 20.9939 237.759V244.051ZM17.8478 239.501H14.5081C14.1451 239.501 13.9878 239.683 13.9878 240.07V242.151C13.9878 242.526 14.1452 242.708 14.4598 242.708H17.3275C17.6905 242.708 17.8478 242.563 17.8478 242.151V239.501Z" fill="white"/>
<path d="M31.8964 242.224C31.8964 243.398 31.0978 244.051 29.8031 244.051H22.2404V242.793H28.1938C28.5084 242.793 28.823 242.575 28.823 242.224V241.728C28.823 241.401 28.5326 241.195 28.1333 241.195H24.0917C22.8696 241.195 22.2283 240.433 22.2283 238.957V237.747C22.2283 236.307 22.918 235.557 24.0917 235.557H30.1298V236.827H25.8221C25.4954 236.827 25.3018 237.009 25.3018 237.299V237.747C25.3018 238.073 25.4833 238.243 25.8221 238.243H29.8031C31.0736 238.243 31.8964 238.848 31.8964 240.07V242.224Z" fill="white"/>
<path d="M40.7177 244.052H36.5914C35.1878 244.052 34.5102 243.12 34.5102 241.692V236.84H32.8645V235.57H34.5102V233.839L37.6562 233.428V235.57H40.7055V236.84H37.6562V241.958C37.6562 242.455 37.862 242.721 38.3581 242.721H40.7177V244.052Z" fill="white"/>
<path d="M426.147 9.31721C426.147 10.6603 425.409 11.5557 423.92 11.5557H415.583V10.0795H422.263C422.686 10.0795 422.868 9.91012 422.868 9.38981V7.84098C422.868 7.38117 422.723 7.18755 422.263 7.18755H417.798C416.382 7.18755 415.571 6.36475 415.571 4.91271V2.27486C415.571 0.943827 416.261 0 417.798 0H426.135V1.47623H419.516C419.032 1.47623 418.862 1.65774 418.862 2.12965V3.35178C418.862 3.75109 419.02 3.9689 419.455 3.9689H423.86C425.385 3.9689 426.135 4.828 426.135 6.20743V9.31721H426.147Z" fill="white"/>
<path d="M437.727 8.09621H430.721V9.64506C430.721 10.0202 430.903 10.2138 431.241 10.2138H436.045V11.5569H429.656C428.216 11.5569 427.587 10.7583 427.587 9.36674V5.25265C427.587 3.87322 428.216 3.0625 429.656 3.0625H435.646C437.025 3.0625 437.727 3.80062 437.727 5.25265V8.09621ZM434.581 6.75309V4.98645C434.581 4.59924 434.4 4.40564 434.061 4.40564H431.241C430.903 4.40564 430.721 4.59924 430.721 4.98645V6.75309H434.581Z" fill="white"/>
<path d="M446.403 11.5569H441.055C439.615 11.5569 438.985 10.7583 438.985 9.36674V5.25265C438.985 3.87322 439.615 3.0625 441.055 3.0625H446.403V4.40564H442.64C442.301 4.40564 442.119 4.59924 442.119 4.98645V9.64506C442.119 10.0202 442.301 10.2138 442.64 10.2138H446.403V11.5569Z" fill="white"/>
<path d="M457.583 11.5565H454.546V10.6974H454.51C454.34 11.3024 454.074 11.5565 453.517 11.5565H449.573C448.218 11.5565 447.54 10.8305 447.54 9.35426V3.07422H450.674V9.64467C450.674 10.0198 450.855 10.2134 451.243 10.2134H453.881C454.28 10.2134 454.437 10.0682 454.437 9.64467V3.07422H457.571V11.5565H457.583Z" fill="white"/>
<path d="M465.848 4.78036H462.532C462.109 4.78036 461.964 4.92557 461.964 5.34907V11.5565H458.83V3.07422H461.661L461.794 4.00594H461.831C461.879 3.38883 462.339 3.07422 463.198 3.07422H465.848V4.78036Z" fill="white"/>
<path d="M477.258 8.09621H470.252V9.64506C470.252 10.0202 470.434 10.2138 470.773 10.2138H475.577V11.5569H469.188C467.748 11.5569 467.118 10.7583 467.118 9.36674V5.25265C467.118 3.87322 467.748 3.0625 469.188 3.0625H475.177C476.557 3.0625 477.258 3.80062 477.258 5.25265V8.09621ZM474.112 6.75309V4.98645C474.112 4.59924 473.931 4.40564 473.592 4.40564H470.773C470.434 4.40564 470.252 4.59924 470.252 4.98645V6.75309H474.112Z" fill="white"/>
<path d="M496.631 9.28091C496.631 10.7208 495.869 11.5557 494.356 11.5557H485.184V0H494.356C495.869 0 496.631 0.822824 496.631 2.27486V9.28091ZM493.231 2.10545C493.231 1.69404 493.025 1.48834 492.614 1.48834L488.572 1.51253V10.0916H492.614C493.025 10.0916 493.231 9.88593 493.231 9.47452V2.10545Z" fill="white"/>
<path d="M508.211 11.5569H505.476L505.331 10.6736H505.295C505.089 11.206 504.823 11.5569 504.157 11.5569H500.091C498.676 11.5569 498.059 10.7583 498.059 8.81014V8.41083C498.059 6.42638 498.639 5.66406 500.152 5.66406H505.065V4.69603C505.065 4.45403 504.919 4.33304 504.629 4.33304H500.128V3.0625H506.093C507.509 3.0625 508.211 3.80062 508.211 5.26475V11.5569ZM505.065 7.01928H501.725C501.362 7.01928 501.205 7.20079 501.205 7.588V9.66924C501.205 10.0444 501.362 10.2259 501.677 10.2259H504.544C504.907 10.2259 505.065 10.0807 505.065 9.66924V7.01928Z" fill="white"/>
<path d="M517.008 11.5557H512.881C511.478 11.5557 510.8 10.6239 510.8 9.19612V4.34392H509.155V3.07338H510.8V1.34305L513.946 0.931641V3.07338H516.995V4.34392H513.946V9.46232C513.946 9.95843 514.152 10.2246 514.648 10.2246H517.008V11.5557Z" fill="white"/>
<path d="M528.418 11.5569H525.684L525.539 10.6736H525.502C525.297 11.206 525.03 11.5569 524.365 11.5569H520.299C518.884 11.5569 518.266 10.7583 518.266 8.81014V8.41083C518.266 6.42638 518.847 5.66406 520.36 5.66406H525.272V4.69603C525.272 4.45403 525.127 4.33304 524.837 4.33304H520.335V3.0625H526.301C527.717 3.0625 528.418 3.80062 528.418 5.26475V11.5569ZM525.272 7.01928H521.933C521.57 7.01928 521.412 7.20079 521.412 7.588V9.66924C521.412 10.0444 521.57 10.2259 521.884 10.2259H524.752C525.115 10.2259 525.272 10.0807 525.272 9.66924V7.01928Z" fill="white"/>
<path d="M197.355 477.925C197.355 479.45 196.46 480.212 194.681 480.212H189.405V484.29H186.017V472.734H194.681C196.46 472.734 197.355 473.497 197.355 475.021V477.925ZM194.076 475.191C194.076 474.477 193.858 474.235 193.217 474.235H189.405V478.748H193.217C193.846 478.748 194.076 478.506 194.076 477.792V475.191Z" fill="white"/>
<path d="M208.935 480.842H201.929V482.391C201.929 482.766 202.11 482.96 202.449 482.96H207.253V484.303H200.864C199.424 484.303 198.795 483.504 198.795 482.113V477.999C198.795 476.619 199.424 475.809 200.864 475.809H206.854C208.233 475.809 208.935 476.547 208.935 477.999V480.842ZM205.789 479.499V477.732C205.789 477.345 205.607 477.152 205.269 477.152H202.449C202.11 477.152 201.929 477.345 201.929 477.732V479.499H205.789Z" fill="white"/>
<path d="M217.2 477.515H213.884C213.461 477.515 213.315 477.66 213.315 478.083V484.291H210.181V475.809H213.013L213.146 476.74H213.182C213.231 476.123 213.691 475.809 214.55 475.809H217.2V477.515Z" fill="white"/>
<path d="M234.854 484.303H231.72V477.732C231.72 477.345 231.538 477.151 231.151 477.151H228.791C228.38 477.151 228.235 477.297 228.235 477.732V484.303H225.089V477.732C225.089 477.345 224.907 477.151 224.532 477.151H222.172C221.761 477.151 221.604 477.297 221.604 477.732V484.303H218.47V475.82H221.507H222.523H226.928H228.114H229.082H232.821C234.176 475.82 234.854 476.558 234.854 478.023V484.303Z" fill="white"/>
<path d="M239.44 474.901H236.233V473.389H239.44V474.901ZM239.428 484.303H236.282V475.821H239.428V484.303Z" fill="white"/>
<path d="M250.523 482.476C250.523 483.65 249.725 484.303 248.43 484.303H240.867V483.045H246.821C247.135 483.045 247.45 482.827 247.45 482.476V481.98C247.45 481.653 247.159 481.447 246.76 481.447H242.719C241.497 481.447 240.855 480.685 240.855 479.209V477.999C240.855 476.559 241.545 475.809 242.719 475.809H248.757V477.079H244.449C244.122 477.079 243.929 477.261 243.929 477.551V477.999C243.929 478.325 244.11 478.495 244.449 478.495H248.43C249.701 478.495 250.523 479.1 250.523 480.322V482.476Z" fill="white"/>
<path d="M261.438 482.476C261.438 483.65 260.639 484.303 259.344 484.303H251.782V483.045H257.735C258.05 483.045 258.364 482.827 258.364 482.476V481.98C258.364 481.653 258.074 481.447 257.675 481.447H253.633C252.411 481.447 251.77 480.685 251.77 479.209V477.999C251.77 476.559 252.459 475.809 253.633 475.809H259.671V477.079H255.363C255.037 477.079 254.843 477.261 254.843 477.551V477.999C254.843 478.325 255.025 478.495 255.363 478.495H259.344C260.615 478.495 261.438 479.1 261.438 480.322V482.476Z" fill="white"/>
<path d="M266.024 474.901H262.818V473.389H266.024V474.901ZM266.012 484.303H262.866V475.821H266.012V484.303Z" fill="white"/>
<path d="M277.604 482.113C277.604 483.565 276.902 484.303 275.523 484.303H269.533C268.093 484.303 267.464 483.504 267.464 482.113V477.999C267.464 476.619 268.093 475.809 269.533 475.809H275.523C276.902 475.809 277.604 476.547 277.604 477.999V482.113ZM274.458 477.732C274.458 477.345 274.276 477.152 273.938 477.152H271.118C270.779 477.152 270.598 477.345 270.598 477.732V482.391C270.598 482.766 270.779 482.96 271.118 482.96H273.938C274.276 482.96 274.458 482.766 274.458 482.391V477.732Z" fill="white"/>
<path d="M288.882 484.303H285.748V477.732C285.748 477.345 285.566 477.151 285.191 477.151H282.553C282.142 477.151 281.984 477.297 281.984 477.732V484.303H278.851V475.82H281.888H282.904H286.849C288.204 475.82 288.882 476.558 288.882 478.023V484.303Z" fill="white"/>
<path d="M293.48 474.901H290.273V473.389H293.48V474.901ZM293.468 484.303H290.321V475.821H293.468V484.303Z" fill="white"/>
<path d="M304.939 484.303H301.805V477.732C301.805 477.345 301.623 477.151 301.248 477.151H298.61C298.199 477.151 298.042 477.297 298.042 477.732V484.303H294.908V475.82H297.945H298.973H302.918C304.273 475.82 304.951 476.558 304.951 478.023V484.303H304.939Z" fill="white"/>
<path d="M316.337 485.33C316.337 485.947 316.155 486.468 315.816 486.879C315.478 487.303 314.957 487.508 314.255 487.508H308.193V486.165H312.489C312.997 486.165 313.191 485.911 313.191 485.403V483.418H313.154C312.9 484.023 312.791 484.253 312.126 484.278H308.229C306.874 484.278 306.197 483.552 306.197 482.075V477.973C306.197 476.497 306.959 475.783 308.229 475.783H312.307C312.694 475.783 313.045 476.122 313.154 476.582H313.191V475.783H316.337V485.33ZM313.191 477.731C313.191 477.344 313.033 477.151 312.707 477.151H309.899C309.488 477.151 309.331 477.296 309.331 477.731V482.39C309.331 482.765 309.512 482.959 309.899 482.959H312.646C313.045 482.959 313.203 482.813 313.203 482.39V477.731H313.191Z" fill="white"/>
<path d="M174.474 11.5557H164.915V0H168.303V10.0795H174.462V11.5557H174.474Z" fill="white"/>
<path d="M185.606 9.37847C185.606 10.8305 184.905 11.5686 183.525 11.5686H177.536C176.096 11.5686 175.466 10.77 175.466 9.37847V5.26436C175.466 3.88493 176.096 3.07422 177.536 3.07422H183.525C184.905 3.07422 185.606 3.81233 185.606 5.26436V9.37847ZM182.46 4.99816C182.46 4.61095 182.279 4.41735 181.94 4.41735H179.121C178.782 4.41735 178.6 4.61095 178.6 4.99816V9.65677C178.6 10.0319 178.782 10.2255 179.121 10.2255H181.94C182.279 10.2255 182.46 10.0319 182.46 9.65677V4.99816Z" fill="white"/>
<path d="M201.494 3.07422L199.304 11.5565H196.037L194.161 4.71986H194.125L192.467 11.5565H189.139L186.816 3.07422H189.878L191.644 9.22116H191.693L193.193 3.07422H196.835L198.554 9.22116H198.59L200.03 3.07422H201.494Z" fill="white"/>
<path d="M218.592 11.5557H211.549C210.037 11.5557 209.274 10.7208 209.274 9.28091V2.27486C209.274 0.859125 210.037 0 211.549 0H218.592V1.47623H213.292C212.88 1.47623 212.675 1.68194 212.675 2.09335V9.45032C212.675 9.89802 212.88 10.0674 213.292 10.0674H218.592V11.5557Z" fill="white"/>
<path d="M230.075 9.37847C230.075 10.8305 229.373 11.5686 227.994 11.5686H222.004C220.564 11.5686 219.935 10.77 219.935 9.37847V5.26436C219.935 3.88493 220.564 3.07422 222.004 3.07422H227.994C229.373 3.07422 230.075 3.81233 230.075 5.26436V9.37847ZM226.929 4.99816C226.929 4.61095 226.747 4.41735 226.408 4.41735H223.589C223.25 4.41735 223.069 4.61095 223.069 4.99816V9.65677C223.069 10.0319 223.25 10.2255 223.589 10.2255H226.408C226.747 10.2255 226.929 10.0319 226.929 9.65677V4.99816Z" fill="white"/>
<path d="M240.977 9.74146C240.977 10.9152 240.178 11.5686 238.884 11.5686H231.321V10.3102H237.274C237.589 10.3102 237.904 10.0924 237.904 9.74146V9.24536C237.904 8.91865 237.613 8.71295 237.214 8.71295H233.172C231.95 8.71295 231.309 7.95062 231.309 6.47439V5.26436C231.309 3.82443 231.999 3.07422 233.172 3.07422H239.21V4.34475H234.903C234.576 4.34475 234.382 4.52625 234.382 4.81666V5.26436C234.382 5.59107 234.564 5.76048 234.903 5.76048H238.884C240.154 5.76048 240.977 6.36549 240.977 7.58761V9.74146Z" fill="white"/>
<path d="M249.798 11.5557H245.672C244.268 11.5557 243.591 10.6239 243.591 9.19612V4.34392H241.945V3.07338H243.591V1.34305L246.737 0.931641V3.07338H249.786V4.34392H246.737V9.46232C246.737 9.95843 246.943 10.2246 247.439 10.2246H249.798V11.5557Z" fill="white"/>
<path d="M566.571 244.05H557.011V232.494H566.571V233.97H560.412V237.479H566.014V238.956H560.412V242.574H566.571V244.05Z" fill="white"/>
<path d="M575.295 244.051H569.947C568.507 244.051 567.877 243.252 567.877 241.861V237.747C567.877 236.367 568.507 235.557 569.947 235.557H575.295V236.9H571.532C571.193 236.9 571.011 237.093 571.011 237.481V242.139C571.011 242.514 571.193 242.708 571.532 242.708H575.295V244.051Z" fill="white"/>
<path d="M586.585 241.873C586.585 243.325 585.883 244.063 584.503 244.063H578.514C577.074 244.063 576.445 243.264 576.445 241.873V237.759C576.445 236.379 577.074 235.568 578.514 235.568H584.503C585.883 235.568 586.585 236.306 586.585 237.759V241.873ZM583.439 237.48C583.439 237.093 583.257 236.899 582.918 236.899H580.099C579.76 236.899 579.579 237.093 579.579 237.48V242.139C579.579 242.514 579.76 242.708 580.099 242.708H582.918C583.257 242.708 583.439 242.514 583.439 242.139V237.48Z" fill="white"/>
<path d="M593.7 241.158H588.012V238.447H593.7V241.158Z" fill="white"/>
<path d="M604.868 233.984H598.709V237.493H604.311V238.969H598.709V244.064H595.321V232.508H604.88V233.984H604.868Z" fill="white"/>
<path d="M613.181 237.263H609.865C609.442 237.263 609.297 237.408 609.297 237.831V244.039H606.163V235.557H608.994L609.127 236.488H609.164C609.212 235.871 609.672 235.557 610.531 235.557H613.181V237.263Z" fill="white"/>
<path d="M617.779 234.649H614.572V233.137H617.779V234.649ZM617.767 244.051H614.621V235.569H617.767V244.051Z" fill="white"/>
<path d="M629.359 240.59H622.353V242.139C622.353 242.514 622.534 242.708 622.873 242.708H627.677V244.051H621.288C619.848 244.051 619.219 243.252 619.219 241.861V237.747C619.219 236.367 619.848 235.557 621.288 235.557H627.278C628.657 235.557 629.359 236.295 629.359 237.747V240.59ZM626.213 239.247V237.481C626.213 237.093 626.032 236.9 625.693 236.9H622.873C622.534 236.9 622.353 237.093 622.353 237.481V239.247H626.213Z" fill="white"/>
<path d="M640.636 244.051H637.502V237.48C637.502 237.093 637.321 236.899 636.946 236.899H634.308C633.896 236.899 633.739 237.045 633.739 237.48V244.051H630.605V235.568H633.642H634.671H638.615C639.971 235.568 640.648 236.306 640.648 237.771V244.051H640.636Z" fill="white"/>
<path d="M652.047 244.05H648.901V243.252H648.865C648.756 243.711 648.393 244.05 648.018 244.05H643.94C642.669 244.05 641.907 243.348 641.907 241.86V237.758C641.907 236.282 642.585 235.556 643.94 235.556H647.836C648.368 235.556 648.586 235.822 648.828 236.427H648.901V232.482H652.047V244.05ZM648.901 237.48C648.901 237.044 648.756 236.899 648.344 236.899H645.598C645.222 236.899 645.029 237.093 645.029 237.48V242.138C645.029 242.562 645.174 242.707 645.598 242.707H648.405C648.732 242.707 648.889 242.514 648.889 242.138V237.48H648.901Z" fill="white"/>
<path d="M656.802 244.05H653.656V232.494H656.802V244.05Z" fill="white"/>
<path d="M668.273 245.08C668.273 245.697 668.104 246.217 667.765 246.629C667.426 247.052 666.906 247.258 666.204 247.258H660.311V245.915H664.437C664.946 245.915 665.139 245.661 665.139 245.153V243.132H665.091C664.921 243.761 664.655 244.027 664.099 244.027H660.287C658.932 244.027 658.254 243.301 658.254 241.825V235.545H661.388V242.115C661.388 242.49 661.57 242.684 661.957 242.684H664.595C664.994 242.684 665.151 242.539 665.151 242.115V235.545H668.285V245.08H668.273Z" fill="white"/>
<path d="M594.438 561.477L669.145 512.846L659.864 563.715L594.438 561.477Z" fill="url(#paint50_linear_961_187)"/>
<path d="M659.864 563.715L682.637 582.555L669.145 512.846L659.864 563.715Z" fill="url(#paint51_linear_961_187)"/>
<path d="M682.637 582.555L594.438 561.477L659.864 563.715L682.637 582.555Z" fill="url(#paint52_linear_961_187)"/>
<defs>
<linearGradient id="paint0_linear_961_187" x1="410.805" y1="215.986" x2="505.253" y2="215.986" gradientUnits="userSpaceOnUse">
<stop stop-color="#00D5FF"/>
<stop offset="1" stop-color="#0000A6"/>
</linearGradient>
<linearGradient id="paint1_linear_961_187" x1="74.4223" y1="157.555" x2="412.457" y2="157.555" gradientUnits="userSpaceOnUse">
<stop stop-color="#00D5FF"/>
<stop offset="1" stop-color="#0000A6"/>
</linearGradient>
<linearGradient id="paint2_linear_961_187" x1="74.9061" y1="242.991" x2="533.437" y2="242.991" gradientUnits="userSpaceOnUse">
<stop stop-color="#AB00E9"/>
<stop offset="1" stop-color="#0000A6"/>
</linearGradient>
<linearGradient id="paint3_linear_961_187" x1="240.434" y1="105.223" x2="126.686" y2="164.409" gradientUnits="userSpaceOnUse">
<stop stop-color="#00D5FF"/>
<stop offset="1" stop-color="#0000A6"/>
</linearGradient>
<linearGradient id="paint4_linear_961_187" x1="110.301" y1="173.601" x2="212.028" y2="106.092" gradientUnits="userSpaceOnUse">
<stop stop-color="#000042"/>
<stop offset="1" stop-color="#0000A6"/>
</linearGradient>
<linearGradient id="paint5_linear_961_187" x1="145.569" y1="226.745" x2="247.296" y2="159.236" gradientUnits="userSpaceOnUse">
<stop stop-color="#000042"/>
<stop offset="1" stop-color="#0000A6"/>
</linearGradient>
<linearGradient id="paint6_linear_961_187" x1="140.685" y1="219.384" x2="242.411" y2="151.875" gradientUnits="userSpaceOnUse">
<stop stop-color="#000042"/>
<stop offset="1" stop-color="#0000A6"/>
</linearGradient>
<linearGradient id="paint7_linear_961_187" x1="449.27" y1="214.67" x2="486.262" y2="151.785" gradientUnits="userSpaceOnUse">
<stop stop-color="#000042"/>
<stop offset="1" stop-color="#0000A6"/>
</linearGradient>
<linearGradient id="paint8_linear_961_187" x1="280.246" y1="250.917" x2="435.61" y2="192.656" gradientUnits="userSpaceOnUse">
<stop stop-color="#000042"/>
<stop offset="1" stop-color="#0000A6"/>
</linearGradient>
<linearGradient id="paint9_linear_961_187" x1="284.935" y1="263.851" x2="440.413" y2="205.49" gradientUnits="userSpaceOnUse">
<stop stop-color="#000042"/>
<stop offset="1" stop-color="#0000A6"/>
</linearGradient>
<linearGradient id="paint10_linear_961_187" x1="280.245" y1="250.916" x2="435.609" y2="192.654" gradientUnits="userSpaceOnUse">
<stop stop-color="#000042"/>
<stop offset="1" stop-color="#0000A6"/>
</linearGradient>
<linearGradient id="paint11_linear_961_187" x1="292.094" y1="282.512" x2="447.458" y2="224.251" gradientUnits="userSpaceOnUse">
<stop stop-color="#000042"/>
<stop offset="1" stop-color="#0000A6"/>
</linearGradient>
<linearGradient id="paint12_linear_961_187" x1="210.286" y1="278.403" x2="356.402" y2="379.205" gradientUnits="userSpaceOnUse">
<stop stop-color="#000042"/>
<stop offset="1" stop-color="#0000A6"/>
</linearGradient>
<linearGradient id="paint13_linear_961_187" x1="210.286" y1="278.403" x2="356.402" y2="379.205" gradientUnits="userSpaceOnUse">
<stop stop-color="#000042"/>
<stop offset="1" stop-color="#0000A6"/>
</linearGradient>
<linearGradient id="paint14_linear_961_187" x1="463.704" y1="106.376" x2="252.852" y2="289.484" gradientUnits="userSpaceOnUse">
<stop stop-color="#00D5FF"/>
<stop offset="1" stop-color="#0000A6"/>
</linearGradient>
<linearGradient id="paint15_linear_961_187" x1="248.917" y1="222.408" x2="395.033" y2="323.21" gradientUnits="userSpaceOnUse">
<stop stop-color="#000042"/>
<stop offset="1" stop-color="#0000A6"/>
</linearGradient>
<linearGradient id="paint16_linear_961_187" x1="212.964" y1="274.523" x2="359.08" y2="375.324" gradientUnits="userSpaceOnUse">
<stop stop-color="#000042"/>
<stop offset="1" stop-color="#0000A6"/>
</linearGradient>
<linearGradient id="paint17_linear_961_187" x1="74.7167" y1="327.367" x2="503.574" y2="327.367" gradientUnits="userSpaceOnUse">
<stop stop-color="#2AFCFF"/>
<stop offset="0.4233" stop-color="#AB00E9"/>
<stop offset="1" stop-color="#0000A6"/>
</linearGradient>
<linearGradient id="paint18_linear_961_187" x1="74.2341" y1="153.841" x2="296.19" y2="153.841" gradientUnits="userSpaceOnUse">
<stop stop-color="#00D5FF"/>
<stop offset="1" stop-color="#0000A6"/>
</linearGradient>
<linearGradient id="paint19_linear_961_187" x1="410.968" y1="134.207" x2="534.219" y2="134.207" gradientUnits="userSpaceOnUse">
<stop stop-color="#00D5FF"/>
<stop offset="1" stop-color="#0000A6"/>
</linearGradient>
<linearGradient id="paint20_linear_961_187" x1="250.565" y1="244.053" x2="412.875" y2="244.053" gradientUnits="userSpaceOnUse">
<stop stop-color="#2AFCFF"/>
<stop offset="0.4233" stop-color="#AB00E9"/>
<stop offset="1" stop-color="#0000A6"/>
</linearGradient>
<linearGradient id="paint21_linear_961_187" x1="74.2498" y1="352.838" x2="252.346" y2="352.838" gradientUnits="userSpaceOnUse">
<stop stop-color="#AB00E9"/>
<stop offset="1" stop-color="#0000A6"/>
</linearGradient>
<linearGradient id="paint22_linear_961_187" x1="251.362" y1="413.864" x2="503.49" y2="413.864" gradientUnits="userSpaceOnUse">
<stop stop-color="#00D5FF"/>
<stop offset="1" stop-color="#0000A6"/>
</linearGradient>
<linearGradient id="paint23_linear_961_187" x1="502.194" y1="304.018" x2="534.404" y2="304.018" gradientUnits="userSpaceOnUse">
<stop stop-color="#00D5FF"/>
<stop offset="1" stop-color="#0000A6"/>
</linearGradient>
<linearGradient id="paint24_linear_961_187" x1="295.336" y1="45.0568" x2="411.931" y2="45.0568" gradientUnits="userSpaceOnUse">
<stop stop-color="#00D5FF"/>
<stop offset="1" stop-color="#0000A6"/>
</linearGradient>
<linearGradient id="paint25_linear_961_187" x1="420.381" y1="39.8944" x2="400.57" y2="34.2774" gradientUnits="userSpaceOnUse">
<stop stop-color="#0000FF"/>
<stop offset="1" stop-color="#2AFFFF"/>
</linearGradient>
<linearGradient id="paint26_linear_961_187" x1="423.878" y1="44.9247" x2="417.419" y2="43.0934" gradientUnits="userSpaceOnUse">
<stop stop-color="#0000FF"/>
<stop offset="1" stop-color="#2AFFFF"/>
</linearGradient>
<linearGradient id="paint27_linear_961_187" x1="420.69" y1="56.1662" x2="396.323" y2="49.2573" gradientUnits="userSpaceOnUse">
<stop stop-color="#0000FF"/>
<stop offset="1" stop-color="#2AFFFF"/>
</linearGradient>
<linearGradient id="paint28_linear_961_187" x1="509.44" y1="391.21" x2="496.559" y2="408.538" gradientUnits="userSpaceOnUse">
<stop stop-color="#0000FF"/>
<stop offset="1" stop-color="#2AFFFF"/>
</linearGradient>
<linearGradient id="paint29_linear_961_187" x1="515.009" y1="389.163" x2="510.809" y2="394.812" gradientUnits="userSpaceOnUse">
<stop stop-color="#0000FF"/>
<stop offset="1" stop-color="#2AFFFF"/>
</linearGradient>
<linearGradient id="paint30_linear_961_187" x1="522.851" y1="394.992" x2="507.008" y2="416.305" gradientUnits="userSpaceOnUse">
<stop stop-color="#0000FF"/>
<stop offset="1" stop-color="#2AFFFF"/>
</linearGradient>
<linearGradient id="paint31_linear_961_187" x1="252.712" y1="423.482" x2="239.499" y2="444.071" gradientUnits="userSpaceOnUse">
<stop stop-color="#0000FF"/>
<stop offset="1" stop-color="#2AFFFF"/>
</linearGradient>
<linearGradient id="paint32_linear_961_187" x1="259.021" y1="420.846" x2="254.713" y2="427.558" gradientUnits="userSpaceOnUse">
<stop stop-color="#0000FF"/>
<stop offset="1" stop-color="#2AFFFF"/>
</linearGradient>
<linearGradient id="paint33_linear_961_187" x1="268.855" y1="427.157" x2="252.604" y2="452.481" gradientUnits="userSpaceOnUse">
<stop stop-color="#0000FF"/>
<stop offset="1" stop-color="#2AFFFF"/>
</linearGradient>
<linearGradient id="paint34_linear_961_187" x1="290.319" y1="22.9017" x2="265.872" y2="23.7593" gradientUnits="userSpaceOnUse">
<stop stop-color="#0000FF"/>
<stop offset="1" stop-color="#2AFFFF"/>
</linearGradient>
<linearGradient id="paint35_linear_961_187" x1="296.079" y1="26.5875" x2="288.108" y2="26.8671" gradientUnits="userSpaceOnUse">
<stop stop-color="#0000FF"/>
<stop offset="1" stop-color="#2AFFFF"/>
</linearGradient>
<linearGradient id="paint36_linear_961_187" x1="296.488" y1="38.2666" x2="266.418" y2="39.3215" gradientUnits="userSpaceOnUse">
<stop stop-color="#0000FF"/>
<stop offset="1" stop-color="#2AFFFF"/>
</linearGradient>
<linearGradient id="paint37_linear_961_187" x1="76.3338" y1="252.671" x2="57.9417" y2="281.329" gradientUnits="userSpaceOnUse">
<stop stop-color="#0000FF"/>
<stop offset="1" stop-color="#2AFFFF"/>
</linearGradient>
<linearGradient id="paint38_linear_961_187" x1="85.1172" y1="249" x2="79.1205" y2="258.344" gradientUnits="userSpaceOnUse">
<stop stop-color="#0000FF"/>
<stop offset="1" stop-color="#2AFFFF"/>
</linearGradient>
<linearGradient id="paint39_linear_961_187" x1="98.8067" y1="257.784" x2="76.1839" y2="293.035" gradientUnits="userSpaceOnUse">
<stop stop-color="#0000FF"/>
<stop offset="1" stop-color="#2AFFFF"/>
</linearGradient>
<linearGradient id="paint40_linear_961_187" x1="84.207" y1="427.083" x2="146.148" y2="453.525" gradientUnits="userSpaceOnUse">
<stop stop-color="#2AFCFF"/>
<stop offset="0.4233" stop-color="#AB00E9"/>
<stop offset="1" stop-color="#0000A6"/>
</linearGradient>
<linearGradient id="paint41_linear_961_187" x1="74.4019" y1="410.597" x2="94.5969" y2="419.218" gradientUnits="userSpaceOnUse">
<stop stop-color="#2AFCFF"/>
<stop offset="0.4233" stop-color="#AB00E9"/>
<stop offset="1" stop-color="#0000A6"/>
</linearGradient>
<linearGradient id="paint42_linear_961_187" x1="87.7599" y1="379.304" x2="163.947" y2="411.827" gradientUnits="userSpaceOnUse">
<stop stop-color="#2AFCFF"/>
<stop offset="0.4233" stop-color="#AB00E9"/>
<stop offset="1" stop-color="#0000A6"/>
</linearGradient>
<linearGradient id="paint43_linear_961_187" x1="536.516" y1="212.64" x2="511.343" y2="235.574" gradientUnits="userSpaceOnUse">
<stop stop-color="#0000FF"/>
<stop offset="1" stop-color="#2AFFFF"/>
</linearGradient>
<linearGradient id="paint44_linear_961_187" x1="543.957" y1="209.176" x2="535.749" y2="216.654" gradientUnits="userSpaceOnUse">
<stop stop-color="#0000FF"/>
<stop offset="1" stop-color="#2AFFFF"/>
</linearGradient>
<linearGradient id="paint45_linear_961_187" x1="548.921" y1="214.626" x2="517.958" y2="242.835" gradientUnits="userSpaceOnUse">
<stop stop-color="#0000FF"/>
<stop offset="1" stop-color="#2AFFFF"/>
</linearGradient>
<linearGradient id="paint46_linear_961_187" x1="530.673" y1="116.116" x2="582.244" y2="134.925" gradientUnits="userSpaceOnUse">
<stop stop-color="#00D5FF"/>
<stop offset="1" stop-color="#0000A6"/>
</linearGradient>
<linearGradient id="paint47_linear_961_187" x1="610.254" y1="131.048" x2="595.928" y2="77.4131" gradientUnits="userSpaceOnUse">
<stop stop-color="#0000FF"/>
<stop offset="1" stop-color="#2AFFFF"/>
</linearGradient>
<linearGradient id="paint48_linear_961_187" x1="611.106" y1="64.9887" x2="560.463" y2="50.373" gradientUnits="userSpaceOnUse">
<stop stop-color="#00D5FF"/>
<stop offset="1" stop-color="#0000A6"/>
</linearGradient>
<linearGradient id="paint49_linear_961_187" x1="610.011" y1="71.278" x2="558.602" y2="56.4413" gradientUnits="userSpaceOnUse">
<stop stop-color="#2AFCFF"/>
<stop offset="0.4233" stop-color="#AB00E9"/>
<stop offset="1" stop-color="#0000A6"/>
</linearGradient>
<linearGradient id="paint50_linear_961_187" x1="667.77" y1="538.299" x2="595.44" y2="534.999" gradientUnits="userSpaceOnUse">
<stop stop-color="#00D5FF"/>
<stop offset="1" stop-color="#0000A6"/>
</linearGradient>
<linearGradient id="paint51_linear_961_187" x1="684.019" y1="547.569" x2="660.435" y2="546.493" gradientUnits="userSpaceOnUse">
<stop stop-color="#00D5FF"/>
<stop offset="1" stop-color="#0000A6"/>
</linearGradient>
<linearGradient id="paint52_linear_961_187" x1="682.851" y1="573.168" x2="593.884" y2="569.11" gradientUnits="userSpaceOnUse">
<stop stop-color="#00D5FF"/>
<stop offset="1" stop-color="#0000A6"/>
</linearGradient>
</defs>
</svg>
