<svg width="73" height="62" viewBox="0 0 73 62" fill="none" xmlns="http://www.w3.org/2000/svg">
<path d="M40.7418 11.1557C39.3492 11.0052 37.9343 10.9189 36.5 10.8975C30.2327 10.9252 23.7358 12.4484 17.5861 15.3671C13.0201 17.6235 8.57228 20.8089 4.70954 24.7381C2.81245 26.7439 0.391219 29.6482 0 32.7468C0.0462334 35.4311 2.92931 38.7442 4.70954 40.7557C8.33174 44.5306 12.6637 47.6248 17.5861 50.1267C17.7534 50.2078 17.9213 50.288 18.0896 50.3671L13.5227 58.3357L19.728 62L53.2725 3.6474L47.2995 0L40.7418 11.1557ZM54.906 15.1356L50.3479 23.0285C52.4448 25.7505 53.6896 29.1071 53.6896 32.7468C53.6896 41.819 45.9928 49.174 36.4955 49.174C36.085 49.174 35.6871 49.1297 35.2836 49.1028L32.2672 54.3203C33.6583 54.4691 35.0649 54.5776 36.5 54.5963C42.7733 54.5681 49.2665 53.0274 55.4094 50.1267C59.9754 47.8703 64.4277 44.685 68.2905 40.7557C70.1876 38.75 72.6087 35.8456 73 32.7468C72.9538 30.0627 70.0707 26.7496 68.2905 24.738C64.6683 20.9631 60.3318 17.8689 55.4094 15.367C55.2433 15.2865 55.0732 15.2141 54.906 15.1356ZM36.4956 16.3198C36.9121 16.3198 37.3252 16.3365 37.7342 16.3643L34.201 22.4766C29.2422 23.4811 25.5215 27.6965 25.5215 32.7425C25.5215 34.01 25.7551 35.2235 26.1854 36.3484C26.1859 36.3496 26.1849 36.3516 26.1854 36.3528L22.6432 42.4829C20.5413 39.7585 19.3015 36.3908 19.3015 32.7468C19.3015 23.6748 26.9983 16.3197 36.4956 16.3198ZM46.7745 29.2077L38.8125 42.9905C43.7446 41.9671 47.4385 37.7708 47.4385 32.7425C47.4385 31.498 47.1899 30.3149 46.7745 29.2077Z" fill="#3B40FF"/>
</svg>
