<svg width="70" height="84" viewBox="0 0 70 84" fill="none" xmlns="http://www.w3.org/2000/svg">
<path d="M44.7391 26.0235L59.6522 15.8118L45.0434 0L35.6087 22.7294L30.1304 4.94116L15.5218 15.4823L27.6956 26.0235H0V47.1059H4.86956V84H65.1304V47.1059H70V26.0235H44.7391ZM46.2755 6.92377L53.9197 15.1974L38.3268 25.8997L46.2755 6.92377ZM28.1777 11.101L32.4939 25.1161L21.7032 15.7727L28.1777 11.101ZM30.1304 78.7294H9.73912V45.4549H30.1304V78.7294ZM30.1304 41.8352H4.86956V31.2941H30.1304V41.8352ZM60.2609 78.7294H39.8695V45.4549H60.2609V78.7294ZM65.1304 41.8352H39.8695V31.2941H65.1304V41.8352Z" fill="#3B40FF"/>
</svg>
