<svg width="73" height="73" viewBox="0 0 73 73" fill="none" xmlns="http://www.w3.org/2000/svg">
<path d="M62.2196 10.7804C58.8481 7.37557 54.837 4.67041 50.4169 2.82038C45.9967 0.970347 41.2546 0.0119037 36.4629 0.00011018C31.6712 -0.0116833 26.9245 0.923405 22.4953 2.75166C18.0661 4.57991 14.0418 7.26529 10.6535 10.6535C7.26529 14.0418 4.57991 18.0661 2.75166 22.4953C0.923405 26.9245 -0.0116833 31.6712 0.00011018 36.4629C0.0119037 41.2546 0.970347 45.9967 2.82038 50.4169C4.67041 54.837 7.37557 58.848 10.7804 62.2196C14.152 65.6244 18.163 68.3296 22.5831 70.1796C27.0033 72.0297 31.7454 72.9881 36.5371 72.9999C41.3288 73.0117 46.0755 72.0766 50.5047 70.2483C54.9339 68.4201 58.9582 65.7347 62.3465 62.3465C65.7347 58.9582 68.4201 54.9339 70.2483 50.5047C72.0766 46.0755 73.0117 41.3288 72.9999 36.5371C72.9881 31.7454 72.0297 27.0033 70.1796 22.5831C68.3296 18.163 65.6244 14.152 62.2196 10.7804ZM5.3228 36.5C5.32164 33.7407 5.6875 30.9935 6.41076 28.3306C7.60264 30.8962 9.33362 33.1127 10.5109 35.7449C12.0324 39.129 16.1179 38.1904 17.922 41.1555C19.523 43.7877 17.8132 47.1165 19.0115 49.8705C19.8819 51.8694 21.9344 52.3062 23.3504 53.7676C24.7972 55.242 24.7663 57.2621 24.9872 59.1847C25.2364 61.4436 25.6406 63.6827 26.1969 65.8861C26.1969 65.9024 26.1969 65.9202 26.2099 65.9365C14.0589 61.6691 5.3228 50.0864 5.3228 36.5ZM36.5 67.6772C34.7589 67.6766 33.0208 67.5311 31.3038 67.242C31.3217 66.802 31.3298 66.3911 31.3736 66.1054C31.7682 63.5235 33.0608 60.9985 34.8047 59.0661C36.5276 57.1598 38.8886 55.8705 40.3436 53.7075C41.7693 51.5966 42.1963 48.7549 41.6085 46.2883C40.743 42.6445 35.792 41.4283 33.1225 39.4521C31.588 38.3154 30.2223 36.5585 28.2072 36.4156C27.2784 36.3506 26.5006 36.5503 25.5799 36.3133C24.7355 36.094 24.073 35.6394 23.1734 35.7579C21.4927 35.9788 20.4324 37.7747 18.6267 37.5311C16.9136 37.3022 15.1485 35.2968 14.7588 33.6648C14.2586 31.5669 15.9182 30.8865 17.6963 30.6997C18.4383 30.6218 19.2714 30.5374 19.9842 30.8102C20.9228 31.1577 21.3661 32.0767 22.2088 32.5411C23.7888 33.4083 24.1087 32.0231 23.8667 30.6202C23.5046 28.519 23.0824 27.6632 24.9563 26.2164C26.2554 25.2194 27.3661 24.4984 27.1582 22.7073C27.0348 21.6551 26.4583 21.1793 26.9958 20.132C27.4034 19.3347 28.5222 18.6153 29.2513 18.1396C31.1333 16.912 37.3135 17.0029 34.7885 13.5669C34.0464 12.5585 32.6775 10.7561 31.3785 10.5093C29.7547 10.2024 29.0337 12.0145 27.9019 12.8135C26.7328 13.64 24.4562 14.5785 23.2854 13.3006C21.7103 11.581 24.3295 11.0175 24.9092 9.81589C25.1772 9.25568 24.9092 8.47787 24.4578 7.74553C25.0435 7.49871 25.6389 7.26976 26.244 7.05866C26.6232 7.33877 27.0731 7.50748 27.5431 7.5458C28.6294 7.61725 29.654 7.02943 30.6023 7.76989C31.6545 8.58179 32.4129 9.60805 33.8093 9.86136C35.1604 10.1066 36.5909 9.31901 36.9254 7.93552C37.1284 7.09438 36.9254 6.20616 36.7306 5.33742C42.8037 5.37236 48.7326 7.19114 53.7806 10.5677C53.4559 10.4443 53.0678 10.4589 52.5887 10.6814C51.6031 11.1393 50.2066 12.3052 50.0913 13.4614C49.9598 14.7734 51.8954 14.9585 52.8144 14.9585C54.1947 14.9585 55.5928 14.3415 55.1479 12.7469C54.9546 12.0551 54.6916 11.3358 54.2678 10.9006C55.2866 11.6075 56.2626 12.3742 57.1906 13.1967C57.176 13.2113 57.1614 13.2243 57.1468 13.2405C56.2115 14.2148 55.1251 14.9861 54.4854 16.1715C54.0339 17.0061 53.5257 17.4023 52.6115 17.6183C52.1081 17.7369 51.5333 17.7807 51.1111 18.1184C49.9354 19.044 50.6044 21.2686 51.7184 21.936C53.1262 22.7788 55.2144 22.3826 56.2764 21.1793C57.1062 20.2375 57.595 18.6023 59.0872 18.604C59.7442 18.6026 60.3754 18.8598 60.8442 19.3201C61.4613 19.9599 61.3395 20.5574 61.471 21.3563C61.7032 22.7755 62.9552 22.0059 63.7167 21.2898C64.2718 22.2777 64.7727 23.2952 65.2171 24.3376C64.3792 25.5441 63.7135 26.8594 61.6983 25.4532C60.4918 24.6104 59.7497 23.3877 58.2347 23.0077C56.9113 22.683 55.5554 23.0207 54.2483 23.2464C52.7625 23.5046 51.0006 23.6183 49.8737 24.7436C48.7841 25.8283 48.2077 27.28 47.0483 28.3696C44.8058 30.4805 43.8591 32.7847 45.3108 35.7693C46.7073 38.6386 49.6285 40.1958 52.7803 39.9912C55.877 39.785 59.0937 37.989 59.0044 42.4886C58.9719 44.0816 59.3048 45.1842 59.7936 46.6634C60.2466 48.0274 60.2158 49.3492 60.3197 50.7571C60.4185 52.4057 60.6763 54.0408 61.0894 55.6399C58.1789 59.3873 54.4504 62.4199 50.1887 64.5061C45.927 66.5924 41.2449 67.677 36.5 67.6772Z" fill="#3B40FF"/>
</svg>
