<svg width="74" height="74" viewBox="0 0 74 74" fill="none" xmlns="http://www.w3.org/2000/svg">
<path d="M37 0C16.596 0 0 16.596 0 37C0 57.404 16.596 74 37 74C57.404 74 74 57.404 74 37C74 16.596 57.404 0 37 0ZM38.8544 5.23772C48.3398 5.78014 56.6921 10.4569 62.1541 17.498C60.7126 17.461 59.2777 17.4522 57.8488 17.4736C55.3683 17.5147 52.8901 17.6461 50.4192 17.8673C49.9648 16.9294 49.2555 16.1384 48.3725 15.5848C47.4895 15.0312 46.4685 14.7375 45.4264 14.7371C45.1682 14.7371 44.9103 14.7552 44.6546 14.7911C42.9166 11.492 40.9797 8.30167 38.8544 5.23772ZM34.3567 5.29692C37.0481 8.97398 39.3813 12.7065 41.3778 16.4909C40.6352 17.2831 40.1412 18.2757 39.957 19.3458C36.505 20.0185 33.0892 20.8656 29.7228 21.884C29.304 21.3177 28.7811 20.8362 28.1822 20.4654C29.5785 15.4815 31.5321 10.4318 34.0296 5.32134C34.1384 5.31172 34.2479 5.30654 34.3567 5.29692ZM29.5911 6.0532C27.5043 10.6153 25.8393 15.1604 24.6006 19.6766C23.8512 19.7665 23.1281 20.0083 22.4753 20.3872C21.8226 20.7661 21.254 21.2742 20.8044 21.8803C17.4655 20.8154 14.0837 19.8901 10.6678 19.1068C15.1261 12.5471 21.8757 7.89112 29.5911 6.0532ZM60.0221 21.1625C61.5702 21.1721 63.1257 21.2217 64.6893 21.3031C66.5583 24.595 67.8208 28.1958 68.4167 31.934C63.9397 32.6621 59.5811 33.6707 55.3379 34.9421C54.8799 34.3748 54.3145 33.9034 53.6742 33.5548C53.0339 33.2061 52.3311 32.987 51.6061 32.91C50.893 30.0704 50.0242 27.2722 49.0035 24.528C49.9213 23.7537 50.5632 22.7026 50.8328 21.5325C53.8661 21.2691 56.9275 21.1425 60.0221 21.1625ZM8.68168 22.4664C12.4572 23.2974 16.1409 24.269 19.7173 25.4109C19.7175 25.4183 19.7178 25.4257 19.718 25.4331C14.9021 27.4111 10.1669 29.7436 5.51078 32.4164C6.00883 28.9469 7.08041 25.5844 8.68168 22.4664ZM40.5712 22.9726C41.051 23.8399 41.7542 24.5629 42.6079 25.0665C43.4615 25.5701 44.4345 25.836 45.4256 25.8364C45.4755 25.8358 45.5253 25.8346 45.5751 25.8327C46.5426 28.4232 47.3667 31.0651 48.0438 33.7462C47.7658 33.9224 47.504 34.123 47.2616 34.3456C42.0432 30.9445 36.5341 28.0118 30.7988 25.5818C30.8033 25.5187 30.8068 25.4556 30.8092 25.3924C34.0208 24.4224 37.2792 23.6148 40.572 22.9726H40.5712ZM21.0944 28.8489C21.5025 29.313 21.9852 29.7056 22.5226 30.0107C21.611 37.145 21.813 44.1795 23.2042 51.0607C19.9256 53.4582 16.7669 56.0156 13.7396 58.7234C8.43008 53.041 5.18 45.4108 5.18 37C5.18 36.9652 5.18296 36.9319 5.18296 36.8971C10.3977 33.764 15.6984 31.0733 21.0944 28.8496V28.8489ZM29.324 28.9666C34.9772 31.3555 40.402 34.2527 45.5315 37.6223C45.4916 37.8894 45.4714 38.159 45.4708 38.4289C45.4707 38.4405 45.4707 38.4521 45.4708 38.4637C38.8404 41.2202 32.5104 44.6649 26.4735 48.7601C25.4301 42.8416 25.3191 36.8091 26.0983 30.6715C27.335 30.483 28.4716 29.8822 29.324 28.9666ZM68.7852 35.6221C68.8045 36.0787 68.82 36.5375 68.82 36.9993C68.8247 41.5061 67.8705 45.9624 66.0206 50.0721C62.9061 46.7556 59.5765 43.6478 56.0535 40.7688C56.393 40.0393 56.5697 39.2447 56.5715 38.44C60.5796 37.2456 64.6589 36.3044 68.7852 35.6221ZM46.7199 41.9336C47.5186 42.914 48.6282 43.5923 49.8649 43.8561C50.6745 51.1888 50.4273 58.7049 49.1752 66.4113C45.3144 68.006 41.1772 68.8245 37 68.82C35.907 68.82 34.8266 68.7652 33.7625 68.6579C30.7936 63.4306 28.6498 58.0981 27.303 52.6688C33.4658 48.3597 39.9297 44.7693 46.7199 41.9343V41.9336ZM53.5138 43.458C57.3166 46.5566 60.8875 49.9294 64.198 53.5494C61.4793 58.0101 57.7062 61.7344 53.2104 64.3948C54.1613 57.2893 54.276 50.303 53.5138 43.4595V43.458ZM24.1284 54.9687C25.305 59.3295 26.9656 63.6245 29.1257 67.8395C24.4484 66.6502 20.1046 64.4082 16.4258 61.2846C18.9396 59.0498 21.5059 56.9408 24.1277 54.9687H24.1284Z" fill="#3B40FF"/>
</svg>
