<svg width="26" height="26" viewBox="0 0 26 26" fill="none" xmlns="http://www.w3.org/2000/svg">
<path d="M25.9163 7.67402C25.9017 6.58234 25.697 5.50151 25.3113 4.47988C24.9769 3.61814 24.466 2.83552 23.8114 2.18204C23.1569 1.52855 22.373 1.01857 21.5098 0.684666C20.4996 0.306092 19.4324 0.10139 18.3536 0.0792772C16.9647 0.0172969 16.5243 0 12.9986 0C9.47279 0 9.02088 9.66535e-08 7.64205 0.0792772C6.56376 0.101553 5.49706 0.306252 4.48734 0.684666C3.62403 1.01833 2.83999 1.52824 2.18539 2.18175C1.53078 2.83527 1.02003 3.618 0.685806 4.47988C0.305842 5.48761 0.101244 6.55277 0.0808529 7.62934C0.0187694 9.01741 0 9.45704 0 12.9769C0 16.4968 -1.07572e-08 16.9466 0.0808529 18.3245C0.10251 19.4027 0.306086 20.4665 0.685806 21.4769C1.02059 22.3385 1.53172 23.1209 2.18655 23.7742C2.84137 24.4274 3.62548 24.9371 4.48878 25.2707C5.49574 25.6644 6.56262 25.8838 7.64349 25.9193C9.03388 25.9813 9.47424 26 13 26C16.5258 26 16.9777 26 18.3565 25.9193C19.4353 25.8981 20.5025 25.6938 21.5127 25.3153C22.3756 24.981 23.1593 24.4709 23.8139 23.8175C24.4684 23.1641 24.9794 22.3816 25.3142 21.5201C25.6939 20.5111 25.8975 19.4474 25.9191 18.3678C25.9812 16.9812 26 16.5415 26 13.0202C25.9971 9.50028 25.9971 9.05344 25.9163 7.67402ZM12.9899 19.6333C9.30242 19.6333 6.31519 16.6511 6.31519 12.9697C6.31519 9.28839 9.30242 6.30613 12.9899 6.30613C14.7601 6.30613 16.4579 7.00819 17.7096 8.25786C18.9614 9.50752 19.6646 11.2024 19.6646 12.9697C19.6646 14.737 18.9614 16.4319 17.7096 17.6816C16.4579 18.9313 14.7601 19.6333 12.9899 19.6333ZM19.9303 7.61348C19.7258 7.61367 19.5233 7.57361 19.3344 7.49559C19.1455 7.41757 18.9738 7.30312 18.8293 7.1588C18.6847 7.01448 18.5701 6.84311 18.4919 6.6545C18.4138 6.4659 18.3736 6.26376 18.3738 6.05965C18.3738 5.85569 18.4141 5.65374 18.4923 5.4653C18.5704 5.27687 18.685 5.10566 18.8295 4.96144C18.9739 4.81722 19.1454 4.70282 19.3342 4.62477C19.5229 4.54671 19.7252 4.50654 19.9295 4.50654C20.1338 4.50654 20.3361 4.54671 20.5249 4.62477C20.7136 4.70282 20.8851 4.81722 21.0296 4.96144C21.174 5.10566 21.2886 5.27687 21.3668 5.4653C21.445 5.65374 21.4852 5.85569 21.4852 6.05965C21.4852 6.91873 20.7893 7.61348 19.9303 7.61348Z" fill="#3B40FF"/>
</svg>
