<svg width="26" height="26" viewBox="0 0 26 26" fill="none" xmlns="http://www.w3.org/2000/svg">
<path d="M5.82049 26H0.429944V8.64128H5.82049V26ZM3.12197 6.27343C1.39848 6.27343 0 4.84529 0 3.12186C0 2.29389 0.328921 1.49983 0.914404 0.914371C1.49989 0.328909 2.29397 0 3.12197 0C3.94997 0 4.74405 0.328909 5.32953 0.914371C5.91502 1.49983 6.24394 2.29389 6.24394 3.12186C6.24394 4.84529 4.84546 6.27343 3.12197 6.27343ZM25.9954 26H20.6169V17.55C20.6169 15.5359 20.576 12.9536 17.8144 12.9536C15.0118 12.9536 14.5819 15.1413 14.5819 17.4051V26H9.1969V8.64128H14.3664V11.0091H14.4417C15.1613 9.64507 16.9192 8.20579 19.5416 8.20579C24.9971 8.20579 26 11.7984 26 16.4645V26H25.9954Z" fill="#3B40FF"/>
</svg>
