<svg width="200" height="122" viewBox="0 0 200 122" fill="none" xmlns="http://www.w3.org/2000/svg">
<path d="M10.27 90.3583H0V84.2383H27.5V90.3583H17.23V121.008H10.27V90.3583Z" fill="white"/>
<path d="M59.98 110.261C59.98 113.621 58.96 116.271 56.93 118.211C54.56 120.441 50.94 121.551 46.07 121.551C41.2 121.551 37.59 120.441 35.23 118.211C33.18 116.271 32.16 113.621 32.16 110.261V95.0009C32.16 91.6409 33.18 88.9909 35.23 87.0509C37.58 84.8209 41.2 83.7109 46.07 83.7109C50.94 83.7109 54.56 84.8209 56.93 87.0509C58.96 88.9909 59.98 91.6409 59.98 95.0009V110.261ZM39.11 109.851C39.11 113.571 41.43 115.431 46.06 115.431C50.69 115.431 53.01 113.571 53.01 109.851V95.4009C53.01 91.6809 50.69 89.8209 46.06 89.8209C41.43 89.8209 39.11 91.6809 39.11 95.4009V109.851Z" fill="white"/>
<path d="M66.58 94.3492C66.58 87.2492 70.94 83.6992 79.65 83.6992C83.14 83.6992 86.47 84.0992 89.65 84.9092L88.87 90.9192C85.49 90.2892 82.5 89.9792 79.89 89.9792C75.65 89.9792 73.53 91.8392 73.53 95.5592V109.689C73.53 113.409 75.65 115.269 79.89 115.269C82.5 115.269 85.49 114.959 88.87 114.329L89.65 120.339C86.47 121.149 83.14 121.549 79.65 121.549C70.93 121.549 66.58 117.999 66.58 110.899V94.3492Z" fill="white"/>
<path d="M123.19 84.2383V110.358C123.19 113.608 122.21 116.198 120.25 118.118C117.93 120.398 114.38 121.538 109.6 121.538C104.8 121.538 101.24 120.398 98.93 118.118C96.99 116.198 96.02 113.608 96.02 110.358V84.2383H102.98V109.788C102.98 113.548 105.19 115.418 109.61 115.418C114.03 115.418 116.24 113.538 116.24 109.788V84.2383H123.19Z" fill="white"/>
<path d="M137.96 93.1383V121.008H131.17V84.2383H140.44L154.4 112.168V84.2383H161.19V121.008H151.92L137.96 93.1383Z" fill="white"/>
<path d="M189.96 113.39H176.32L174 121.02H166.72L178.31 84.25H188.04L199.63 121.02H192.32L189.96 113.39ZM178.05 107.37H188.21L183.17 89.98L178.05 107.37Z" fill="white"/>
<path d="M95.47 0H49.4L62.19 19.49H77.57C77.57 19.49 84.79 6.44 95.47 0Z" fill="url(#paint0_linear_961_105)"/>
<path d="M126.35 43.9883H77.99L90.78 63.4783H108.46C108.45 63.4783 115.66 50.4283 126.35 43.9883Z" fill="url(#paint1_linear_961_105)"/>
<path d="M150.24 0H107.22C107.22 0 85.92 5.1 75.09 39.37C89.9 62.18 90.84 63.47 90.84 63.47C90.84 63.47 91.81 34.88 116.51 19.48C137.3 19.48 137.3 19.48 137.3 19.48L150.24 0Z" fill="url(#paint2_linear_961_105)"/>
<defs>
<linearGradient id="paint0_linear_961_105" x1="90.5576" y1="-6.2284" x2="58.896" y2="12.454" gradientUnits="userSpaceOnUse">
<stop stop-color="#00D5FF"/>
<stop offset="1" stop-color="#0000A6"/>
</linearGradient>
<linearGradient id="paint1_linear_961_105" x1="87.1421" y1="57.1373" x2="121.164" y2="38.0617" gradientUnits="userSpaceOnUse">
<stop stop-color="#00D5FF"/>
<stop offset="1" stop-color="#0000A6"/>
</linearGradient>
<linearGradient id="paint2_linear_961_105" x1="151.149" y1="3.8579" x2="77.993" y2="42.5991" gradientUnits="userSpaceOnUse">
<stop stop-color="#00D5FF"/>
<stop offset="1" stop-color="#0000A6"/>
</linearGradient>
</defs>
</svg>
