<svg width="227" height="43" viewBox="0 0 227 43" fill="none" xmlns="http://www.w3.org/2000/svg">
<path d="M82.17 11.7704H74.3156V7.08984H95.3475V11.7704H87.493V35.2115H82.17V11.7704Z" fill="#2E3A61"/>
<path d="M120.188 26.9833C120.188 29.553 119.408 31.5798 117.856 33.0635C116.043 34.769 113.275 35.6179 109.55 35.6179C105.825 35.6179 103.064 34.769 101.26 33.0635C99.6917 31.5798 98.9116 29.553 98.9116 26.9833V15.3201C98.9116 12.7504 99.6917 10.7237 101.26 9.23998C103.057 7.53447 105.825 6.68555 109.55 6.68555C113.275 6.68555 116.043 7.53447 117.856 9.23998C119.408 10.7237 120.188 12.7504 120.188 15.3201V26.9833ZM104.235 26.6774C104.235 29.5225 106.009 30.945 109.55 30.945C113.091 30.945 114.865 29.5225 114.865 26.6774V15.626C114.865 12.781 113.091 11.3585 109.55 11.3585C106.009 11.3585 104.235 12.781 104.235 15.626V26.6774Z" fill="#2E3A61"/>
<path d="M125.236 14.8228C125.236 9.39277 128.57 6.67773 135.232 6.67773C137.901 6.67773 140.448 6.98365 142.88 7.60314L142.283 12.1996C139.698 11.7178 137.412 11.4807 135.415 11.4807C132.173 11.4807 130.551 12.9032 130.551 15.7483V26.5549C130.551 29.3999 132.173 30.8224 135.415 30.8224C137.412 30.8224 139.698 30.5854 142.283 30.1035L142.88 34.7C140.448 35.3195 137.901 35.6254 135.232 35.6254C128.563 35.6254 125.236 32.9103 125.236 27.4803V14.8228Z" fill="#2E3A61"/>
<path d="M168.531 7.08984V27.0664C168.531 29.552 167.782 31.5328 166.283 33.0012C164.508 34.745 161.793 35.6169 158.138 35.6169C154.467 35.6169 151.744 34.745 149.977 33.0012C148.493 31.5328 147.752 29.552 147.752 27.0664V7.08984H153.075V26.6305C153.075 29.5061 154.765 30.9363 158.145 30.9363C161.526 30.9363 163.216 29.4985 163.216 26.6305V7.08984H168.531Z" fill="#2E3A61"/>
<path d="M179.835 13.8966V35.2115H174.642V7.08984H181.732L192.408 28.4507V7.08984H197.601V35.2115H190.512L179.835 13.8966Z" fill="#2E3A61"/>
<path d="M219.604 29.3761H209.173L207.398 35.2115H201.831L210.695 7.08984H218.136L227 35.2115H221.409L219.604 29.3761ZM210.488 24.7796H218.258L214.404 11.4798L210.488 24.7796Z" fill="#2E3A61"/>
<path d="M30.699 0H0L8.51986 12.9863H18.7682C18.7758 12.9863 23.5788 4.29817 30.699 0Z" fill="url(#paint0_linear_961_327)"/>
<path d="M51.2799 29.3145H19.0513L27.5711 42.3007H39.349C39.349 42.3007 44.1596 33.6126 51.2799 29.3145Z" fill="url(#paint1_linear_961_327)"/>
<path d="M67.1954 0H38.5307C38.5307 0 24.336 3.39571 17.124 26.2403C26.9899 41.4368 27.6247 42.301 27.6247 42.301C27.6247 42.301 28.2747 23.2499 44.7332 12.9863C58.5914 12.9863 58.5914 12.9863 58.5914 12.9863L67.1954 0Z" fill="url(#paint2_linear_961_327)"/>
<defs>
<linearGradient id="paint0_linear_961_327" x1="27.4259" y1="-4.15072" x2="6.32604" y2="8.29952" gradientUnits="userSpaceOnUse">
<stop stop-color="#00D5FF"/>
<stop offset="1" stop-color="#0000A6"/>
</linearGradient>
<linearGradient id="paint1_linear_961_327" x1="25.1499" y1="38.0782" x2="47.8225" y2="25.3659" gradientUnits="userSpaceOnUse">
<stop stop-color="#00D5FF"/>
<stop offset="1" stop-color="#0000A6"/>
</linearGradient>
<linearGradient id="paint2_linear_961_327" x1="67.8054" y1="2.57095" x2="19.0528" y2="28.3889" gradientUnits="userSpaceOnUse">
<stop stop-color="#00D5FF"/>
<stop offset="1" stop-color="#0000A6"/>
</linearGradient>
</defs>
</svg>
