<svg width="448" height="40" viewBox="0 0 448 40" fill="none" xmlns="http://www.w3.org/2000/svg">
<path d="M23.2933 33.8562H14.569L7.85331 15.004L7.2362 38.5511H0.193848L1.81528 2.17773H9.52315L18.913 28.0118L28.327 2.17773H36.0106L37.6684 38.5511H30.626L30.0089 15.004L23.2933 33.8562Z" fill="url(#paint0_linear_961_165)"/>
<path d="M50.4944 29.1741C50.4944 32.1629 52.2127 33.6512 55.6733 33.6512C58.3354 33.6512 61.058 33.2398 63.8289 32.3928L64.8454 37.4023C61.8929 38.5155 58.6379 39.0842 55.0925 39.0842C51.0752 39.0842 48.147 38.1767 46.3198 36.3617C44.6621 34.6919 43.8393 32.175 43.8393 28.8111V21.7688C43.8393 18.6469 44.6137 16.2148 46.1625 14.4844C47.9897 12.4274 50.9058 11.3867 54.8868 11.3867C58.8194 11.3867 61.6146 12.4516 63.2844 14.5812C64.6397 16.2873 65.3052 18.7921 65.3052 22.0955V27.7705H50.5065V29.1741H50.4944ZM50.4944 22.4464H58.9525V21.1396C58.9525 18.296 57.6094 16.8681 54.9231 16.8681C51.9707 16.8681 50.4944 18.296 50.4944 21.1396V22.4464Z" fill="url(#paint1_linear_961_165)"/>
<path d="M85.416 38.0802C83.7825 38.7578 81.8344 39.0966 79.5716 39.0966C74.6952 39.0966 72.2631 36.7491 72.2631 32.0542V17.2556H68.2579V11.9799H72.2631V5.37311L78.9061 4.44141V11.992H85.7307L85.3071 17.2677H78.9182V31.2072C78.9182 32.7681 79.7168 33.5546 81.3141 33.5546C82.27 33.5546 83.3832 33.3732 84.6416 32.998L85.416 38.0802Z" fill="url(#paint2_linear_961_165)"/>
<path d="M110.379 38.5514H104.91L104.426 36.7364C102.042 38.2973 99.4041 39.0839 96.5121 39.0839C94.1889 39.0839 92.4222 38.3458 91.2364 36.8695C90.1353 35.478 89.5787 33.5903 89.5787 31.1945C89.5787 26.1971 92.1681 23.7044 97.3349 23.7044H103.712V20.9093C103.712 19.3846 103.397 18.344 102.78 17.8116C102.09 17.2187 100.711 16.9283 98.6418 16.9283C96.3306 16.9283 93.8743 17.2066 91.2606 17.7511L90.462 12.6569C93.2208 11.822 96.258 11.3984 99.5856 11.3984C103.651 11.3984 106.495 12.1729 108.116 13.7217C109.629 15.1374 110.379 17.5817 110.379 21.0302V38.5514ZM103.712 28.4961H98.8112C96.9598 28.4961 96.0402 29.3673 96.0402 31.1098C96.0402 32.9006 96.9235 33.8081 98.7023 33.8081C100.445 33.8081 102.115 33.3483 103.712 32.4529V28.4961V28.4961Z" fill="url(#paint3_linear_961_165)"/>
<path d="M131.228 38.5511H122.431L113.925 11.9668H120.749L126.799 32.15L132.934 11.9668H139.759L131.228 38.5511Z" fill="url(#paint4_linear_961_165)"/>
<path d="M149.305 29.1741C149.305 32.1629 151.024 33.6512 154.484 33.6512C157.146 33.6512 159.869 33.2398 162.64 32.3928L163.656 37.4023C160.704 38.5155 157.449 39.0842 153.904 39.0842C149.886 39.0842 146.958 38.1767 145.131 36.3617C143.473 34.6919 142.65 32.175 142.65 28.8111V21.7688C142.65 18.6469 143.425 16.2148 144.974 14.4844C146.801 12.4274 149.717 11.3867 153.698 11.3867C157.63 11.3867 160.426 12.4516 162.095 14.5812C163.451 16.2873 164.116 18.7921 164.116 22.0955V27.7705H149.318V29.1741H149.305ZM149.305 22.4464H157.764V21.1396C157.764 18.296 156.42 16.8681 153.734 16.8681C150.782 16.8681 149.305 18.296 149.305 21.1396V22.4464Z" fill="url(#paint5_linear_961_165)"/>
<path d="M183.815 17.5466C181.686 18.4904 179.338 19.773 176.773 21.4187V38.5648H170.106V11.9805H175.732L176.156 14.9087C177.112 14.2674 178.177 13.6503 179.326 13.0453C180.839 12.2588 182.109 11.7263 183.138 11.4238L183.815 17.5466Z" fill="url(#paint6_linear_961_165)"/>
<path d="M204.313 36.8695C202.873 38.3458 200.272 39.0839 196.496 39.0839C193.241 39.0839 190.192 38.5756 187.324 37.5592L188.256 32.4892C190.87 33.2515 193.508 33.6387 196.17 33.6387C197.597 33.6387 198.529 33.4451 198.965 33.0579C199.352 32.7191 199.546 32.0173 199.546 30.9525C199.546 30.045 199.304 29.3915 198.832 28.9801C198.227 28.4598 196.92 27.9637 194.911 27.4555C191.765 26.6932 189.732 25.7493 188.837 24.624C188.038 23.6318 187.639 21.7926 187.639 19.1063C187.639 16.3474 188.353 14.3993 189.769 13.2377C191.257 12.0155 193.871 11.3984 197.585 11.3984C200.538 11.3984 203.188 11.713 205.559 12.3301L204.894 17.6301C202.208 17.1098 199.776 16.8557 197.585 16.8557C195.323 16.8557 194.197 17.618 194.197 19.1547C194.197 20.2195 194.379 20.9093 194.73 21.2118C195.081 21.5264 196.158 21.9257 197.96 22.3855C201.639 23.3414 203.926 24.3094 204.809 25.2653C205.68 26.1729 206.116 28.0121 206.116 30.7831C206.128 33.6266 205.523 35.6474 204.313 36.8695Z" fill="url(#paint7_linear_961_165)"/>
<path d="M218.12 29.1741C218.12 32.1629 219.838 33.6512 223.299 33.6512C225.961 33.6512 228.683 33.2398 231.454 32.3928L232.471 37.4023C229.518 38.5155 226.263 39.0842 222.718 39.0842C218.701 39.0842 215.772 38.1767 213.945 36.3617C212.287 34.6919 211.465 32.175 211.465 28.8111V21.7688C211.465 18.6469 212.239 16.2148 213.788 14.4844C215.615 12.4274 218.531 11.3867 222.512 11.3867C226.445 11.3867 229.24 12.4516 230.91 14.5812C232.265 16.2873 232.93 18.7921 232.93 22.0955V27.7705H218.132V29.1741H218.12ZM218.12 22.4464H226.578V21.1396C226.578 18.296 225.235 16.8681 222.548 16.8681C219.596 16.8681 218.12 18.296 218.12 21.1396V22.4464Z" fill="url(#paint8_linear_961_165)"/>
<path d="M250.657 2.18945H264.839C268.941 2.18945 271.917 3.02434 273.769 4.69418C275.511 6.27932 276.382 8.72357 276.382 12.0269V16.9881C276.382 23.5101 272.426 26.7772 264.512 26.7772H257.53V38.5629H250.645V2.18945H250.657ZM269.509 12.5594C269.509 9.67949 267.828 8.23959 264.476 8.23959H257.542V20.6907H264.476C267.84 20.6907 269.509 19.2145 269.509 16.262V12.5594Z" fill="url(#paint9_linear_961_165)"/>
<path d="M281.828 38.5504V1.08799L288.495 0.15625V38.5504H281.828Z" fill="url(#paint10_linear_961_165)"/>
<path d="M315.817 38.5514H310.348L309.864 36.7364C307.48 38.2973 304.842 39.0839 301.95 39.0839C299.627 39.0839 297.86 38.3458 296.674 36.8695C295.573 35.478 295.017 33.5903 295.017 31.1945C295.017 26.1971 297.606 23.7044 302.773 23.7044H309.15V20.9093C309.15 19.3846 308.835 18.344 308.218 17.8116C307.528 17.2187 306.149 16.9283 304.08 16.9283C301.769 16.9283 299.312 17.2066 296.699 17.7511L295.9 12.6569C298.659 11.822 301.696 11.3984 305.024 11.3984C309.089 11.3984 311.933 12.1729 313.554 13.7217C315.067 15.1374 315.817 17.5817 315.817 21.0302V38.5514ZM309.15 28.4961H304.249C302.398 28.4961 301.478 29.3673 301.478 31.1098C301.478 32.9006 302.362 33.8081 304.14 33.8081C305.883 33.8081 307.553 33.3483 309.15 32.4529V28.4961Z" fill="url(#paint11_linear_961_165)"/>
<path d="M337.041 38.0802C335.408 38.7578 333.46 39.0966 331.197 39.0966C326.32 39.0966 323.888 36.7491 323.888 32.0542V17.2556H319.883V11.9799H323.888V5.37311L330.531 4.44141V11.992H337.356L336.932 17.2677H330.531V31.2072C330.531 32.7681 331.33 33.5546 332.927 33.5546C333.883 33.5546 334.996 33.3732 336.255 32.998L337.041 38.0802Z" fill="url(#paint12_linear_961_165)"/>
<path d="M357.599 5.89282C356.244 5.60242 354.974 5.46931 353.764 5.46931C351.767 5.46931 350.775 6.52203 350.775 8.63957V11.9671H357.551L357.152 17.2429H350.775V38.5514H344.108V17.2429H339.836V11.9671H344.108V8.24028C344.108 2.74676 346.927 0 352.566 0C354.574 0 356.486 0.254086 358.301 0.774398L357.599 5.89282Z" fill="url(#paint13_linear_961_165)"/>
<path d="M384.05 28.6046C384.05 31.7386 383.264 34.1708 381.703 35.9132C379.767 38.0307 376.693 39.0835 372.483 39.0835C368.272 39.0835 365.198 38.0307 363.286 35.9132C361.701 34.1708 360.915 31.7386 360.915 28.6046V21.889C360.915 18.7792 361.701 16.347 363.286 14.6046C365.21 12.475 368.272 11.4102 372.483 11.4102C376.693 11.4102 379.767 12.475 381.703 14.6046C383.264 16.347 384.05 18.7792 384.05 21.889V28.6046ZM377.383 21.6712C377.383 18.6098 375.75 17.0852 372.483 17.0852C369.216 17.0852 367.582 18.6098 367.582 21.6712V28.8224C367.582 31.8838 369.216 33.4084 372.483 33.4084C375.75 33.4084 377.383 31.8838 377.383 28.8224V21.6712Z" fill="url(#paint14_linear_961_165)"/>
<path d="M404.186 17.5466C402.056 18.4904 399.708 19.773 397.143 21.4187V38.5648H390.476V11.9805H396.103L396.526 14.9087C397.482 14.2674 398.547 13.6503 399.696 13.0453C401.209 12.2588 402.479 11.7263 403.508 11.4238L404.186 17.5466Z" fill="url(#paint15_linear_961_165)"/>
<path d="M425.385 38.551V19.9892C425.385 18.5735 424.671 17.8596 423.256 17.8596C421.477 17.8596 419.166 18.6098 416.322 20.0981V38.551H409.655V11.9668H414.725L415.391 14.2053C419.154 12.3419 422.699 11.4102 426.027 11.4102C428.459 11.4102 430.141 12.3661 431.072 14.2658C434.787 12.3661 438.357 11.4102 441.769 11.4102C445.786 11.4102 447.795 14.0359 447.795 19.2753V38.551H441.128V19.9892C441.128 18.5735 440.414 17.8596 438.998 17.8596C436.953 17.8596 434.642 18.6098 432.065 20.0981V38.551H425.385Z" fill="url(#paint16_linear_961_165)"/>
<defs>
<linearGradient id="paint0_linear_961_165" x1="7.47361" y1="20.6857" x2="443.423" y2="9.4552" gradientUnits="userSpaceOnUse">
<stop stop-color="#2AFCFF"/>
<stop offset="0.4233" stop-color="#AB00E9"/>
<stop offset="1" stop-color="#0000FF"/>
</linearGradient>
<linearGradient id="paint1_linear_961_165" x1="7.62247" y1="26.4709" x2="443.571" y2="15.2403" gradientUnits="userSpaceOnUse">
<stop stop-color="#2AFCFF"/>
<stop offset="0.4233" stop-color="#AB00E9"/>
<stop offset="1" stop-color="#0000FF"/>
</linearGradient>
<linearGradient id="paint2_linear_961_165" x1="7.54888" y1="23.6079" x2="443.498" y2="12.3773" gradientUnits="userSpaceOnUse">
<stop stop-color="#2AFCFF"/>
<stop offset="0.4233" stop-color="#AB00E9"/>
<stop offset="1" stop-color="#0000FF"/>
</linearGradient>
<linearGradient id="paint3_linear_961_165" x1="7.65126" y1="27.5737" x2="443.6" y2="16.3432" gradientUnits="userSpaceOnUse">
<stop stop-color="#2AFCFF"/>
<stop offset="0.4233" stop-color="#AB00E9"/>
<stop offset="1" stop-color="#0000FF"/>
</linearGradient>
<linearGradient id="paint4_linear_961_165" x1="7.66809" y1="28.2223" x2="443.617" y2="16.9918" gradientUnits="userSpaceOnUse">
<stop stop-color="#2AFCFF"/>
<stop offset="0.4233" stop-color="#AB00E9"/>
<stop offset="1" stop-color="#0000FF"/>
</linearGradient>
<linearGradient id="paint5_linear_961_165" x1="7.68819" y1="29.0148" x2="443.637" y2="17.7843" gradientUnits="userSpaceOnUse">
<stop stop-color="#2AFCFF"/>
<stop offset="0.4233" stop-color="#AB00E9"/>
<stop offset="1" stop-color="#0000FF"/>
</linearGradient>
<linearGradient id="paint6_linear_961_165" x1="7.69855" y1="29.4213" x2="443.648" y2="18.1907" gradientUnits="userSpaceOnUse">
<stop stop-color="#2AFCFF"/>
<stop offset="0.4233" stop-color="#AB00E9"/>
<stop offset="1" stop-color="#0000FF"/>
</linearGradient>
<linearGradient id="paint7_linear_961_165" x1="7.71669" y1="30.1255" x2="443.666" y2="18.895" gradientUnits="userSpaceOnUse">
<stop stop-color="#2AFCFF"/>
<stop offset="0.4233" stop-color="#AB00E9"/>
<stop offset="1" stop-color="#0000FF"/>
</linearGradient>
<linearGradient id="paint8_linear_961_165" x1="7.73408" y1="30.7865" x2="443.683" y2="19.556" gradientUnits="userSpaceOnUse">
<stop stop-color="#2AFCFF"/>
<stop offset="0.4233" stop-color="#AB00E9"/>
<stop offset="1" stop-color="#0000FF"/>
</linearGradient>
<linearGradient id="paint9_linear_961_165" x1="7.62917" y1="26.7184" x2="443.578" y2="15.4879" gradientUnits="userSpaceOnUse">
<stop stop-color="#2AFCFF"/>
<stop offset="0.4233" stop-color="#AB00E9"/>
<stop offset="1" stop-color="#0000FF"/>
</linearGradient>
<linearGradient id="paint10_linear_961_165" x1="7.62534" y1="26.5909" x2="443.575" y2="15.3603" gradientUnits="userSpaceOnUse">
<stop stop-color="#2AFCFF"/>
<stop offset="0.4233" stop-color="#AB00E9"/>
<stop offset="1" stop-color="#0000FF"/>
</linearGradient>
<linearGradient id="paint11_linear_961_165" x1="7.78722" y1="32.8627" x2="443.736" y2="21.6322" gradientUnits="userSpaceOnUse">
<stop stop-color="#2AFCFF"/>
<stop offset="0.4233" stop-color="#AB00E9"/>
<stop offset="1" stop-color="#0000FF"/>
</linearGradient>
<linearGradient id="paint12_linear_961_165" x1="7.71659" y1="30.0856" x2="443.665" y2="18.8552" gradientUnits="userSpaceOnUse">
<stop stop-color="#2AFCFF"/>
<stop offset="0.4233" stop-color="#AB00E9"/>
<stop offset="1" stop-color="#0000FF"/>
</linearGradient>
<linearGradient id="paint13_linear_961_165" x1="7.66536" y1="28.1359" x2="443.615" y2="16.9054" gradientUnits="userSpaceOnUse">
<stop stop-color="#2AFCFF"/>
<stop offset="0.4233" stop-color="#AB00E9"/>
<stop offset="1" stop-color="#0000FF"/>
</linearGradient>
<linearGradient id="paint14_linear_961_165" x1="7.83259" y1="34.6423" x2="443.782" y2="23.4118" gradientUnits="userSpaceOnUse">
<stop stop-color="#2AFCFF"/>
<stop offset="0.4233" stop-color="#AB00E9"/>
<stop offset="1" stop-color="#0000FF"/>
</linearGradient>
<linearGradient id="paint15_linear_961_165" x1="7.84536" y1="35.0945" x2="443.794" y2="23.8641" gradientUnits="userSpaceOnUse">
<stop stop-color="#2AFCFF"/>
<stop offset="0.4233" stop-color="#AB00E9"/>
<stop offset="1" stop-color="#0000FF"/>
</linearGradient>
<linearGradient id="paint16_linear_961_165" x1="7.86898" y1="36.0314" x2="443.818" y2="24.8009" gradientUnits="userSpaceOnUse">
<stop stop-color="#2AFCFF"/>
<stop offset="0.4233" stop-color="#AB00E9"/>
<stop offset="1" stop-color="#0000FF"/>
</linearGradient>
</defs>
</svg>
