<svg width="29" height="23" viewBox="0 0 29 23" fill="none" xmlns="http://www.w3.org/2000/svg">
<path d="M29 2.72442C28.1924 3.89722 27.2017 4.89697 26.0277 5.72368C26.0393 5.9454 26.0451 6.196 26.0451 6.47548C26.0451 8.02833 25.8132 9.58306 25.3495 11.1397C24.8857 12.6963 24.1773 14.1863 23.2243 15.6096C22.2712 17.0329 21.136 18.2938 19.8185 19.3923C18.5011 20.4909 16.9174 21.3668 15.0676 22.0201C13.2178 22.6734 11.2353 23 9.12006 23C5.81892 23 2.7789 22.1299 0 20.3897C0.493223 20.4433 0.966265 20.47 1.41913 20.47C4.17695 20.47 6.64014 19.6407 8.80868 17.982C7.52282 17.959 6.37124 17.5725 5.35394 16.8226C4.33663 16.0727 3.63655 15.1144 3.25368 13.9479C3.63212 14.0182 4.00562 14.0534 4.3742 14.0534C4.90474 14.0534 5.42678 13.9859 5.94032 13.8507C4.56807 13.5824 3.42968 12.9151 2.52513 11.8488C1.62062 10.7826 1.16836 9.55189 1.16836 8.1568V8.08491C2.01065 8.54025 2.90909 8.78245 3.86367 8.81152C3.05076 8.2824 2.40625 7.59241 1.93013 6.74155C1.45397 5.89069 1.2159 4.9699 1.2159 3.9792C1.2159 2.93434 1.48407 1.96138 2.0204 1.06032C3.51269 2.84829 5.32092 4.2773 7.44508 5.34733C9.56927 6.41739 11.8481 7.01166 14.2816 7.13015C14.1778 6.70783 14.1258 6.26711 14.1257 5.808C14.1257 4.20496 14.7067 2.8362 15.8687 1.70172C17.0308 0.567241 18.4328 0 20.0746 0C21.7936 0 23.2415 0.611117 24.4184 1.83335C25.763 1.57331 27.022 1.10297 28.1954 0.422326C27.7433 1.81137 26.8722 2.88292 25.5821 3.63699C26.7678 3.49942 27.9071 3.19523 29 2.72442H29Z" fill="#3B40FF"/>
</svg>
